<svg width="172" height="173" viewBox="0 0 172 173" fill="none" xmlns="http://www.w3.org/2000/svg">
<g clip-path="url(#clip0_1_169)">
<rect y="0.63623" width="172" height="172" rx="20.8485" fill="url(#paint0_linear_1_169)"/>
<g clip-path="url(#clip1_1_169)">
<path d="M132.195 34.0609L146.51 20.8469L157.154 24.1504L162.477 35.8962L158.072 52.4136L146.51 61.957L148.064 67.0958C154.337 65.5052 167.469 64.0859 169.818 71.1334C172.754 79.9427 169.818 90.2202 169.818 94.2578C169.818 98.2954 167.615 105.82 167.799 111.142C167.982 116.465 170.001 124.54 167.799 135.368C165.597 146.196 165.78 152.803 167.799 155.556C169.818 158.309 176.241 165.283 176.975 173.909C174.345 175.438 168.827 177.579 167.799 173.909C166.514 169.32 165.046 166.384 162.477 162.713C159.907 159.043 160.458 151.151 160.825 143.26C161.192 135.368 157.888 110.408 159.357 103.985C160.531 98.846 155.686 88.3849 153.117 83.7968L146.51 100.865C145.837 109.124 144.528 127.586 144.675 135.368L122.101 128.944C123.508 121.297 125.771 104.756 123.569 99.7636C121.367 94.7717 117.635 85.9379 116.044 82.145C114.454 79.5145 111.346 77.2999 111.64 89.4861C112.007 104.719 109.437 126.926 108.52 132.248C107.602 137.57 101.729 156.657 101.729 162.713C101.729 167.559 102.341 172.196 102.647 173.909L100.628 178.497L97.508 169.32C98.915 161.49 101.729 144.948 101.729 141.424C101.729 137.02 100.628 127.476 100.628 122.705C100.628 117.933 101.729 110.959 101.729 106.738C101.729 102.517 104.298 84.3473 104.298 79.9427C104.298 75.538 107.235 67.4628 111.64 67.0958C116.044 66.7287 117.696 66.7287 120.632 65.8111C122.982 65.077 129.319 44.3384 132.195 34.0609Z" fill="#EAC7AC"/>
<path d="M105.4 158.125C104.519 154.455 107.113 145.462 108.52 141.424C115.428 139.589 127.606 153.721 129.625 158.125C131.24 161.649 134.703 174.031 136.232 179.782L111.64 180.883C109.927 174.826 106.281 161.796 105.4 158.125Z" fill="#EAC7AC"/>
<path d="M145.592 178.497C143.614 175.12 143.177 163.509 143.206 158.125C147.244 155.434 155.429 150.527 155.87 152.436C156.31 154.345 162.66 170.605 165.78 178.497C159.875 179.904 147.57 181.874 145.592 178.497Z" fill="#EAC7AC"/>
<path d="M118.797 123.438C120.853 118.006 119.654 108.695 118.797 104.719C118.622 103.838 122.762 102.883 124.853 102.516C126.322 118.667 124.242 126.375 123.018 128.21L118.797 123.438Z" fill="#D6B49B"/>
<path d="M144.491 135.001C142.142 124.723 144.858 107.472 146.51 100.13L158.072 103.25C156.31 110.004 157.827 124.784 158.806 131.33L144.491 135.001Z" fill="#D6B49B"/>
<path d="M143.206 59.0203C139.536 58.7267 136.049 53.2698 134.764 50.5781L133.112 54.2486C133.846 57.9192 139.413 61.7732 142.105 63.2415V59.3874C146.363 60.4151 148.773 58.5921 149.446 57.5521C148.896 58.1639 146.877 59.314 143.206 59.0203Z" fill="#D6B49B"/>
<path d="M135.131 179.231C135.131 176.001 131.093 163.57 129.075 157.758C134.213 159.043 144.491 161.942 144.491 163.264C144.491 164.585 145.592 174.459 146.143 179.231C145.115 176.735 139.352 169.137 136.599 165.65C137.186 169.761 135.865 176.417 135.131 179.231Z" fill="#D6B49B"/>
<path d="M158.072 111.509C158.072 107.985 159.173 103.312 159.724 101.415C158.439 108.573 160.458 127.476 161.008 131.33C161.559 135.184 161.742 153.72 161.742 157.758C161.742 160.988 163.455 163.631 164.312 164.549C162.66 163.447 161.008 164.365 161.742 166.751C162.477 169.137 161.559 171.155 161.008 173.358C160.458 175.56 159.724 173.174 158.806 168.036C157.888 162.897 158.072 158.492 158.806 155.005C159.54 151.518 160.091 134.817 159.724 132.615C159.357 130.412 158.072 115.914 158.072 111.509Z" fill="#D6B49B"/>
<path d="M112.007 80.493C113.328 78.2907 115.126 80.0648 115.861 81.2271C112.19 81.9612 114.576 100.13 114.759 103.25C114.943 106.37 112.557 125.824 110.905 131.33C109.254 136.836 105.216 149.683 103.564 155.005C102.243 159.263 101.913 167.913 101.913 171.706C101.423 166.139 101.178 153.574 104.115 147.848C107.785 140.69 108.887 120.318 109.988 110.224C111.089 100.13 110.355 83.2459 112.007 80.493Z" fill="#D6B49B"/>
<path d="M101.729 112.611C101.605 112.943 101.468 113.323 101.322 113.74C100.023 119.207 101.802 136.708 102.647 141.608C103.564 146.931 98.2418 166.201 98.2418 168.403C98.2418 170.165 99.5877 174.276 100.261 176.111H98.2418C94.7548 171.707 95.3054 169.504 96.9571 165.1C98.6089 160.695 98.2418 152.803 98.2418 148.582V127.11C98.2418 123.437 100.098 117.243 101.322 113.74C101.434 113.269 101.569 112.888 101.729 112.611Z" fill="#F5D5BC"/>
<path d="M128.524 98.6629C130.286 97.1947 133.051 90.343 134.213 87.1007C133.479 91.799 138.067 95.91 140.453 97.3782C138.924 99.1523 135.535 104.279 134.213 110.592C132.892 116.906 134.764 129.495 135.865 135.001L127.606 131.881C128.463 126.743 130.286 114.923 130.726 108.757C131.167 102.59 129.442 99.4582 128.524 98.6629Z" fill="#F5D5BC"/>
<path d="M170.919 94.0747C171.653 90.4042 171.225 80.7996 170.919 76.4561C169.206 85.6325 166.074 105.747 167.248 112.795C168.716 121.604 167.799 129.312 166.698 136.837C165.596 144.361 165.229 151.335 166.698 155.006C168.166 158.676 172.02 162.347 172.754 166.201C173.341 169.284 175.568 172.624 176.608 173.909C176.547 171.095 175.323 164.109 170.919 158.676C165.413 151.886 166.147 144.545 168.9 136.286C171.653 128.027 169.083 116.465 168.9 111.877C168.716 107.289 170.001 98.6629 170.919 94.0747Z" fill="#F5D5BC"/>
<path d="M108.703 181.984C102.243 168.623 103.931 156.963 105.583 152.803C105.583 158.676 110.966 173.848 113.658 180.7L108.703 181.984Z" fill="#F5D5BC"/>
<path d="M114.209 83.4299C114.209 81.0808 118.858 71.4395 121.183 66.9125C121.183 69.6654 120.082 72.6018 118.247 76.4559C116.411 80.3099 117.696 84.164 120.082 88.9357C121.991 92.7531 125.894 96.7662 127.606 98.2956C124.303 100.437 117.255 103.948 115.494 100.865C113.291 97.0109 114.209 86.3663 114.209 83.4299Z" fill="#34A853"/>
<path d="M145.959 94.4415C149.777 89.8901 150.853 77.0065 150.914 71.1336C151.832 72.4183 159.357 92.9733 158.99 98.2956C158.696 102.553 149.569 101.783 145.042 100.865C143.757 100.62 142.142 98.993 145.959 94.4415Z" fill="#34A853"/>
<path d="M130.359 128.394C125.955 127.366 121.183 123.439 119.348 121.604C117.586 124.1 115.188 129.495 114.209 131.881C116.962 138.488 158.99 143.443 158.99 137.57C158.99 132.872 158.133 128.761 157.705 127.293C157.154 129.128 148.896 130.046 145.959 130.046C143.023 130.046 135.865 129.679 130.359 128.394Z" fill="#34A853"/>
<path d="M124.119 99.0298C127.202 98.2957 132.011 94.8086 134.029 93.1569C135.742 94.931 139.572 98.5893 141.187 99.0298C142.655 99.4302 143.931 97.7377 144.519 96.5993C144.562 96.4945 144.614 96.3871 144.674 96.2769C144.629 96.377 144.578 96.4854 144.519 96.5993C142.969 100.334 151.758 100.671 155.686 100.314C158.916 100.021 158.989 96.3992 158.622 94.6251C159.943 98.1488 159.784 102.211 159.54 103.801C154.768 106.004 145.408 103.434 143.022 102.333C140.636 101.232 139.719 99.9474 139.168 99.3968C138.618 98.8462 135.314 95.1757 134.029 94.9922C132.745 94.8086 130.542 99.0298 129.258 100.314C127.973 101.599 127.055 104.169 122.651 106.004C118.246 107.839 115.31 103.985 115.31 102.7V100.314C115.86 100.865 120.265 99.9474 124.119 99.0298Z" fill="#2C9A4A"/>
<path d="M109.62 142.342C109.327 139.112 112.557 134.022 114.208 131.881C114.208 132.982 122.467 135.735 136.415 138.305C147.574 140.36 156.114 138.549 158.989 137.387L158.622 154.639C155.38 156.474 148.748 160.291 148.161 160.878C147.427 161.613 143.389 164.365 142.288 165.65C141.407 166.678 140.086 166.445 139.535 166.201C137.7 166.751 136.415 166.751 135.865 166.201C135.314 165.65 127.79 158.86 126.688 158.493C125.587 158.126 109.987 146.38 109.62 142.342Z" fill="#2C9A4A"/>
<path d="M152.382 24.1507C151.354 23.1229 148.773 23.4777 147.61 23.7836C144.123 22.499 141.003 28.5552 141.003 29.4728C141.003 30.3905 134.947 34.9787 133.662 35.8963C132.377 36.8139 130.909 39.3833 132.377 41.7692C133.846 44.155 135.681 48.3762 136.231 50.5785C136.782 52.7808 132.744 57.9196 132.377 60.3055C132.168 61.6672 134.063 63.608 135.878 65.0751C136.909 65.5323 137.705 66.0099 137.883 66.5453C137.322 66.1772 136.606 65.6643 135.878 65.0751C133.727 64.1218 130.552 63.257 129.808 62.1407C128.707 60.4889 129.808 59.0208 129.808 56.0843C129.808 53.1479 125.954 61.9572 124.302 64.5265C122.981 66.5821 121.549 68.6865 120.999 69.4818L116.594 67.0959C111.272 67.6465 107.785 68.7477 106.133 72.0512C104.481 75.3547 104.114 82.8793 103.38 86.3663C102.793 89.1559 98.8531 90.7098 96.9567 91.138C99.8931 87.8346 98.0578 77.1899 99.7096 76.0888C101.361 74.9876 102.462 71.5006 102.279 68.7477C102.095 65.9947 102.095 62.5077 105.215 60.3055C108.335 58.1032 107.418 56.0843 107.785 50.5785C108.078 46.1738 114.514 42.1362 117.695 40.668C118.062 39.8728 118.906 36.9975 119.347 31.8587C119.898 25.4353 127.973 21.5812 129.808 21.5812C131.643 21.5812 134.58 18.2777 135.681 16.6259C136.782 14.9742 139.719 14.9742 145.958 14.2401C150.95 13.6528 155.624 18.1554 157.337 20.4801C161.191 19.9295 164.862 27.2706 164.862 31.8587C164.862 36.4469 169.817 45.8068 168.899 47.275C167.982 48.7432 164.128 56.0843 166.881 60.3055C169.083 63.6824 169.144 66.9736 168.899 68.1971C168.165 68.0136 165.779 69.4818 165.779 70.0324C165.779 70.583 163.393 73.3359 162.476 73.7029C161.558 74.07 161.191 75.9053 163.393 78.4747C165.596 81.044 163.944 88.0181 164.128 91.138C164.274 93.634 167.859 94.8698 169.633 95.1756C168.349 95.7262 165.596 96.497 164.862 95.1756C163.944 93.5239 162.476 93.5239 161.191 93.8909C159.906 94.258 159.906 98.1121 161.925 98.2956C163.54 98.4424 165.902 98.8462 166.881 99.0297V101.049C165.963 100.681 163.687 100.057 161.925 100.498C160.334 100.896 160.619 103.321 161.05 104.823C161.125 104.95 161.174 105.098 161.191 105.27C161.144 105.134 161.096 104.984 161.05 104.823C160.482 103.859 158.418 104.082 157.337 104.352C157.643 103.373 158.255 101.122 158.255 99.9473C158.255 98.4791 148.895 85.2652 145.591 82.8793C142.288 80.4935 143.756 73.5194 144.307 71.5006C144.857 69.4818 142.838 69.4818 142.655 70.3995C142.471 71.3171 139.719 74.07 137.883 75.3547C136.048 76.6394 130.175 78.4747 133.662 84.3475C136.452 89.0458 140.086 86.9169 141.554 85.2652C140.269 88.9357 135.314 88.5687 133.662 86.3663C132.01 84.164 131.46 82.5123 131.827 78.4747C132.194 74.4371 137.883 70.7665 139.719 69.4818C141.554 68.1971 140.269 65.9948 141.003 65.2607C141.591 64.6734 141.86 60.856 141.921 59.0208C142.043 59.1431 142.949 59.4245 145.591 59.5714C148.895 59.7549 150.363 57.1855 151.097 56.0843C151.831 54.9832 156.603 49.6609 157.337 48.3762C158.071 47.0915 157.521 42.5033 158.255 40.668C158.493 40.072 158.732 39.4179 158.945 38.6492C158.997 38.4657 156.603 38.0986 155.685 38.2822C154.951 38.429 154.89 37.3645 154.951 36.8139C155.989 36.4469 158.323 35.933 159.353 36.8139C159.578 35.5002 159.723 33.8967 159.723 31.8587C159.723 27.2706 157.337 25.9859 156.603 25.0682C155.869 24.1506 153.667 25.4354 152.382 24.1507Z" fill="#A08263"/>
<path d="M147.06 32.7763C145.445 32.0422 142.349 33.0822 141.003 33.694C145.408 32.9599 147.06 34.6116 147.243 34.7951C147.427 34.9787 150.363 37.181 150.914 36.4469C151.464 35.7128 149.078 33.694 147.06 32.7763Z" fill="#A08263"/>
<path d="M145.408 16.0757C148.932 14.7543 154.462 18.5839 156.787 20.6639C155.906 20.6639 154.952 21.7651 154.585 22.3157C153.422 21.031 150.033 18.4616 145.775 18.4616C140.453 18.4616 137.517 23.4169 135.131 24.8851C132.745 26.3533 131.644 29.8403 129.441 32.4097C127.239 34.9791 134.213 50.5789 134.213 53.1483C134.213 55.7177 132.378 59.0211 132.378 61.2235C132.378 63.4258 137.517 63.9764 140.637 66.3622C143.757 68.7481 141.187 71.868 135.865 74.0704C131.607 75.8322 131.277 80.9221 131.644 83.2467C129.074 72.0516 140.82 71.868 140.637 68.5646C140.453 65.2611 133.663 64.7105 132.378 63.2423C131.093 61.774 131.46 56.2682 131.644 54.8C131.827 53.3318 131.093 47.826 129.441 44.5225C128.12 41.8797 127.667 36.3249 127.606 33.8779C126.138 35.1626 125.22 39.3837 124.67 40.4849C124.119 41.5861 114.576 48.9271 114.576 52.0471C114.576 55.1671 109.437 62.3246 106.868 64.7105C104.812 66.6192 103.197 69.6657 102.646 70.9504C102.83 69.1151 103.748 65.8116 105.216 63.9764C106.684 62.1411 111.272 57.1859 112.373 51.313C113.475 45.4401 122.284 41.7696 122.284 38.099C122.284 34.4285 125.771 26.3533 128.157 25.8027C130.543 25.2521 136.048 19.7463 137.517 17.7275C138.691 16.1125 143.267 15.9534 145.408 16.0757Z" fill="#61472D"/>
<path d="M158.622 20.6639C156.714 20.517 155.135 22.1933 154.585 23.0498C164.128 24.7015 163.21 43.4213 163.027 52.0471C162.843 60.6729 155.686 60.1223 154.034 72.0516C152.382 83.9808 157.888 88.202 161.375 92.6066C164.165 96.1303 167.554 95.7878 168.9 95.176C165.046 94.9925 152.566 79.3927 157.888 73.3363C163.21 67.2799 165.596 63.9764 165.596 62.5082C165.596 61.0399 163.945 60.1223 164.862 55.3506C165.78 50.5789 168.533 48.9271 168.9 45.8072C169.267 42.6872 164.679 36.4473 164.862 31.4921C165.046 26.5368 161.008 20.8475 158.622 20.6639Z" fill="#61472D"/>
</g>
<path d="M15.6837 69.7029H11.7569V57.5729H15.8081C16.9966 57.5729 18.0174 57.8157 18.8702 58.3014C19.7231 58.7831 20.3766 59.4761 20.8307 60.3803C21.2888 61.2806 21.5178 62.3605 21.5178 63.6201C21.5178 64.8837 21.2868 65.9695 20.8248 66.8777C20.3668 67.7859 19.7034 68.4848 18.8347 68.9744C17.966 69.4601 16.9157 69.7029 15.6837 69.7029ZM13.5871 68.1037H15.5831C16.507 68.1037 17.275 67.93 17.8871 67.5825C18.4991 67.2311 18.9571 66.7237 19.2612 66.0603C19.5652 65.393 19.7172 64.5796 19.7172 63.6201C19.7172 62.6685 19.5652 61.861 19.2612 61.1977C18.9611 60.5343 18.5129 60.0309 17.9167 59.6873C17.3204 59.3438 16.5801 59.172 15.6956 59.172H13.5871V68.1037ZM27.7809 69.8865C26.8846 69.8865 26.1126 69.695 25.4651 69.312C24.8214 68.925 24.3239 68.3821 23.9725 67.6832C23.625 66.9804 23.4513 66.1571 23.4513 65.2134C23.4513 64.2815 23.625 63.4602 23.9725 62.7495C24.3239 62.0387 24.8135 61.4839 25.4414 61.0851C26.0731 60.6863 26.8115 60.4869 27.6565 60.4869C28.1698 60.4869 28.6674 60.5718 29.1491 60.7416C29.6308 60.9114 30.0632 61.1779 30.4462 61.5412C30.8292 61.9045 31.1313 62.3763 31.3524 62.9568C31.5735 63.5332 31.6841 64.2341 31.6841 65.0594V65.6872H24.4523V64.3605H29.9487C29.9487 63.8945 29.8539 63.4819 29.6644 63.1226C29.4748 62.7593 29.2083 62.4731 28.8648 62.2638C28.5252 62.0545 28.1264 61.9499 27.6684 61.9499C27.1708 61.9499 26.7365 62.0723 26.3653 62.3171C25.9981 62.5579 25.7138 62.8738 25.5124 63.2647C25.315 63.6517 25.2163 64.0722 25.2163 64.5263V65.5628C25.2163 66.1709 25.3229 66.6882 25.5361 67.1146C25.7533 67.5411 26.0554 67.8668 26.4423 68.0919C26.8293 68.313 27.2814 68.4236 27.7987 68.4236C28.1343 68.4236 28.4403 68.3762 28.7167 68.2814C28.9931 68.1827 29.232 68.0366 29.4334 67.8431C29.6348 67.6496 29.7888 67.4107 29.8954 67.1264L31.5715 67.4285C31.4373 67.9221 31.1964 68.3545 30.8489 68.7256C30.5054 69.0928 30.0731 69.3791 29.5518 69.5844C29.0346 69.7858 28.4443 69.8865 27.7809 69.8865ZM41.3795 60.6054L38.0805 69.7029H36.1852L32.8802 60.6054H34.7814L37.0854 67.6062H37.1802L39.4783 60.6054H41.3795ZM46.8638 69.8865C45.9675 69.8865 45.1955 69.695 44.5479 69.312C43.9043 68.925 43.4068 68.3821 43.0554 67.6832C42.7079 66.9804 42.5342 66.1571 42.5342 65.2134C42.5342 64.2815 42.7079 63.4602 43.0554 62.7495C43.4068 62.0387 43.8964 61.4839 44.5242 61.0851C45.156 60.6863 45.8944 60.4869 46.7394 60.4869C47.2527 60.4869 47.7502 60.5718 48.232 60.7416C48.7137 60.9114 49.1461 61.1779 49.5291 61.5412C49.9121 61.9045 50.2141 62.3763 50.4353 62.9568C50.6564 63.5332 50.7669 64.2341 50.7669 65.0594V65.6872H43.5351V64.3605H49.0316C49.0316 63.8945 48.9368 63.4819 48.7473 63.1226C48.5577 62.7593 48.2912 62.4731 47.9477 62.2638C47.6081 62.0545 47.2093 61.9499 46.7512 61.9499C46.2537 61.9499 45.8194 62.0723 45.4482 62.3171C45.081 62.5579 44.7967 62.8738 44.5953 63.2647C44.3979 63.6517 44.2992 64.0722 44.2992 64.5263V65.5628C44.2992 66.1709 44.4058 66.6882 44.619 67.1146C44.8362 67.5411 45.1383 67.8668 45.5252 68.0919C45.9122 68.313 46.3643 68.4236 46.8815 68.4236C47.2172 68.4236 47.5232 68.3762 47.7996 68.2814C48.076 68.1827 48.3149 68.0366 48.5163 67.8431C48.7176 67.6496 48.8716 67.4107 48.9782 67.1264L50.6544 67.4285C50.5202 67.9221 50.2793 68.3545 49.9318 68.7256C49.5883 69.0928 49.1559 69.3791 48.6347 69.5844C48.1175 69.7858 47.5271 69.8865 46.8638 69.8865ZM54.7113 57.5729V69.7029H52.9403V57.5729H54.7113ZM61.1343 69.8865C60.2814 69.8865 59.5371 69.6911 58.9014 69.3001C58.2657 68.9092 57.7721 68.3624 57.4207 67.6595C57.0693 66.9567 56.8936 66.1354 56.8936 65.1956C56.8936 64.2519 57.0693 63.4266 57.4207 62.7198C57.7721 62.013 58.2657 61.4642 58.9014 61.0733C59.5371 60.6824 60.2814 60.4869 61.1343 60.4869C61.9872 60.4869 62.7315 60.6824 63.3673 61.0733C64.003 61.4642 64.4965 62.013 64.848 62.7198C65.1994 63.4266 65.3751 64.2519 65.3751 65.1956C65.3751 66.1354 65.1994 66.9567 64.848 67.6595C64.4965 68.3624 64.003 68.9092 63.3673 69.3001C62.7315 69.6911 61.9872 69.8865 61.1343 69.8865ZM61.1403 68.3999C61.6931 68.3999 62.1511 68.2538 62.5144 67.9616C62.8776 67.6694 63.1461 67.2804 63.3199 66.7948C63.4976 66.3091 63.5864 65.7741 63.5864 65.1897C63.5864 64.6092 63.4976 64.0762 63.3199 63.5905C63.1461 63.1009 62.8776 62.708 62.5144 62.4118C62.1511 62.1157 61.6931 61.9676 61.1403 61.9676C60.5835 61.9676 60.1215 62.1157 59.7543 62.4118C59.391 62.708 59.1206 63.1009 58.9429 63.5905C58.7691 64.0762 58.6823 64.6092 58.6823 65.1897C58.6823 65.7741 58.7691 66.3091 58.9429 66.7948C59.1206 67.2804 59.391 67.6694 59.7543 67.9616C60.1215 68.2538 60.5835 68.3999 61.1403 68.3999ZM67.5603 73.1145V60.6054H69.2898V62.0802H69.4379C69.5406 61.8906 69.6886 61.6715 69.8821 61.4227C70.0756 61.174 70.3441 60.9568 70.6876 60.7712C71.0311 60.5817 71.4852 60.4869 72.0499 60.4869C72.7843 60.4869 73.4398 60.6725 74.0163 61.0437C74.5928 61.4148 75.0449 61.9499 75.3726 62.6488C75.7043 63.3477 75.8701 64.1887 75.8701 65.1719C75.8701 66.1551 75.7063 66.9981 75.3785 67.701C75.0508 68.3999 74.6007 68.9388 74.0281 69.3179C73.4556 69.693 72.8021 69.8806 72.0676 69.8806C71.5148 69.8806 71.0627 69.7878 70.7113 69.6022C70.3638 69.4166 70.0914 69.1995 69.894 68.9507C69.6965 68.7019 69.5445 68.4808 69.4379 68.2873H69.3313V73.1145H67.5603ZM69.2957 65.1541C69.2957 65.7938 69.3885 66.3545 69.5741 66.8362C69.7597 67.318 70.0282 67.695 70.3796 67.9675C70.7311 68.236 71.1614 68.3703 71.6708 68.3703C72.1999 68.3703 72.6422 68.2301 72.9975 67.9497C73.3529 67.6654 73.6214 67.2804 73.803 66.7948C73.9886 66.3091 74.0814 65.7622 74.0814 65.1541C74.0814 64.554 73.9906 64.015 73.809 63.5372C73.6313 63.0594 73.3628 62.6823 73.0035 62.4059C72.6481 62.1295 72.2039 61.9913 71.6708 61.9913C71.1575 61.9913 70.7232 62.1236 70.3678 62.3882C70.0164 62.6527 69.7498 63.0219 69.5682 63.4957C69.3866 63.9696 69.2957 64.5224 69.2957 65.1541ZM13.3857 86.3012V91.7029H11.6147V79.5729H13.362V84.0861H13.4745C13.6877 83.5965 14.0135 83.2075 14.4518 82.9193C14.8901 82.631 15.4626 82.4869 16.1694 82.4869C16.7933 82.4869 17.3382 82.6152 17.8041 82.8719C18.274 83.1286 18.6373 83.5116 18.8939 84.0209C19.1545 84.5264 19.2848 85.1581 19.2848 85.9163V91.7029H17.5139V86.1295C17.5139 85.4622 17.3421 84.9449 16.9986 84.5777C16.6551 84.2065 16.1773 84.0209 15.5653 84.0209C15.1467 84.0209 14.7716 84.1098 14.4399 84.2875C14.1122 84.4652 13.8536 84.7258 13.664 85.0693C13.4785 85.4089 13.3857 85.8195 13.3857 86.3012ZM25.7775 91.8865C24.8812 91.8865 24.1092 91.695 23.4617 91.312C22.818 90.925 22.3205 90.3821 21.9691 89.6832C21.6216 88.9804 21.4479 88.1571 21.4479 87.2134C21.4479 86.2815 21.6216 85.4602 21.9691 84.7495C22.3205 84.0387 22.8101 83.4839 23.438 83.0851C24.0697 82.6863 24.8081 82.4869 25.6531 82.4869C26.1664 82.4869 26.6639 82.5718 27.1457 82.7416C27.6274 82.9114 28.0598 83.1779 28.4428 83.5412C28.8258 83.9045 29.1279 84.3763 29.349 84.9568C29.5701 85.5332 29.6807 86.2341 29.6807 87.0594V87.6872H22.4488V86.3605H27.9453C27.9453 85.8945 27.8505 85.4819 27.661 85.1226C27.4714 84.7593 27.2049 84.4731 26.8614 84.2638C26.5218 84.0545 26.123 83.9499 25.665 83.9499C25.1674 83.9499 24.7331 84.0723 24.3619 84.3171C23.9947 84.5579 23.7104 84.8738 23.509 85.2647C23.3116 85.6517 23.2129 86.0722 23.2129 86.5263V87.5628C23.2129 88.1709 23.3195 88.6882 23.5327 89.1146C23.7499 89.5411 24.052 89.8668 24.4389 90.0919C24.8259 90.313 25.278 90.4236 25.7953 90.4236C26.1309 90.4236 26.4369 90.3762 26.7133 90.2814C26.9897 90.1827 27.2286 90.0366 27.43 89.8431C27.6313 89.6496 27.7853 89.4107 27.892 89.1264L29.5681 89.4285C29.4339 89.9221 29.193 90.3545 28.8455 90.7256C28.502 91.0928 28.0696 91.3791 27.5484 91.5844C27.0312 91.7858 26.4409 91.8865 25.7775 91.8865ZM34.5016 91.9043C33.9251 91.9043 33.4039 91.7977 32.9379 91.5844C32.472 91.3673 32.1028 91.0534 31.8304 90.6427C31.5619 90.2321 31.4276 89.7286 31.4276 89.1324C31.4276 88.6191 31.5263 88.1966 31.7238 87.8649C31.9212 87.5332 32.1877 87.2706 32.5233 87.0771C32.859 86.8837 33.2341 86.7376 33.6487 86.6388C34.0633 86.5401 34.4858 86.4651 34.9162 86.4138C35.4611 86.3506 35.9033 86.2993 36.2429 86.2598C36.5825 86.2163 36.8293 86.1472 36.9833 86.0525C37.1373 85.9577 37.2142 85.8037 37.2142 85.5905V85.549C37.2142 85.0318 37.0682 84.631 36.776 84.3467C36.4877 84.0624 36.0573 83.9203 35.4848 83.9203C34.8885 83.9203 34.4187 84.0525 34.0751 84.3171C33.7356 84.5777 33.5006 84.8679 33.3703 85.1877L31.706 84.8087C31.9034 84.2559 32.1917 83.8097 32.5707 83.4701C32.9537 83.1266 33.394 82.8778 33.8915 82.7238C34.389 82.5659 34.9122 82.4869 35.4611 82.4869C35.8243 82.4869 36.2093 82.5304 36.616 82.6172C37.0267 82.7001 37.4097 82.8541 37.7651 83.0792C38.1244 83.3043 38.4186 83.6261 38.6476 84.0446C38.8766 84.4592 38.9911 84.9982 38.9911 85.6616V91.7029H37.2616V90.4591H37.1906C37.076 90.6881 36.9043 90.9132 36.6753 91.1343C36.4462 91.3554 36.1521 91.539 35.7928 91.6851C35.4334 91.8312 35.003 91.9043 34.5016 91.9043ZM34.8866 90.4828C35.3762 90.4828 35.7947 90.386 36.1422 90.1926C36.4936 89.9991 36.7602 89.7464 36.9418 89.4344C37.1274 89.1186 37.2202 88.7809 37.2202 88.4216V87.2489C37.157 87.3121 37.0346 87.3713 36.853 87.4266C36.6753 87.4779 36.4719 87.5233 36.2429 87.5628C36.0139 87.5984 35.7908 87.6319 35.5736 87.6635C35.3564 87.6911 35.1748 87.7148 35.0287 87.7346C34.6852 87.778 34.3713 87.8511 34.087 87.9537C33.8066 88.0564 33.5816 88.2045 33.4118 88.3979C33.2459 88.5875 33.163 88.8402 33.163 89.1561C33.163 89.5944 33.3249 89.926 33.6487 90.1511C33.9725 90.3722 34.3851 90.4828 34.8866 90.4828ZM43.3293 79.5729V91.7029H41.5584V79.5729H43.3293ZM50.167 82.6054V84.0269H45.1977V82.6054H50.167ZM46.5303 80.4258H48.3013V89.0317C48.3013 89.3752 48.3526 89.6338 48.4553 89.8076C48.5579 89.9774 48.6902 90.0939 48.8521 90.157C49.0179 90.2163 49.1976 90.2459 49.3911 90.2459C49.5332 90.2459 49.6576 90.236 49.7642 90.2163C49.8708 90.1965 49.9537 90.1807 50.013 90.1689L50.3328 91.6318C50.2301 91.6713 50.084 91.7108 49.8945 91.7503C49.705 91.7937 49.4681 91.8174 49.1838 91.8214C48.7178 91.8293 48.2835 91.7463 47.8807 91.5726C47.478 91.3989 47.1522 91.1304 46.9035 90.7671C46.6547 90.4038 46.5303 89.9478 46.5303 89.3989V80.4258ZM54.3008 86.3012V91.7029H52.5299V79.5729H54.2771V84.0861H54.3897C54.6029 83.5965 54.9287 83.2075 55.3669 82.9193C55.8052 82.631 56.3778 82.4869 57.0846 82.4869C57.7084 82.4869 58.2534 82.6152 58.7193 82.8719C59.1892 83.1286 59.5524 83.5116 59.8091 84.0209C60.0697 84.5264 60.2 85.1581 60.2 85.9163V91.7029H58.4291V86.1295C58.4291 85.4622 58.2573 84.9449 57.9138 84.5777C57.5702 84.2065 57.0925 84.0209 56.4804 84.0209C56.0619 84.0209 55.6868 84.1098 55.3551 84.2875C55.0274 84.4652 54.7687 84.7258 54.5792 85.0693C54.3936 85.4089 54.3008 85.8195 54.3008 86.3012ZM63.5654 95.1145C63.3008 95.1145 63.06 95.0927 62.8428 95.0493C62.6256 95.0098 62.4637 94.9664 62.3571 94.919L62.7836 93.4679C63.1073 93.5548 63.3956 93.5923 63.6483 93.5804C63.901 93.5686 64.1241 93.4738 64.3176 93.2961C64.515 93.1185 64.6887 92.8282 64.8388 92.4255L65.0579 91.8214L61.7293 82.6054H63.6246L65.9286 89.6654H66.0234L68.3274 82.6054H70.2286L66.4794 92.9171C66.3057 93.3909 66.0846 93.7917 65.8161 94.1194C65.5476 94.4511 65.2277 94.6999 64.8566 94.8657C64.4854 95.0315 64.055 95.1145 63.5654 95.1145ZM13.3857 109.301V114.703H11.6147V102.573H13.362V107.086H13.4745C13.6877 106.596 14.0135 106.208 14.4518 105.919C14.8901 105.631 15.4626 105.487 16.1694 105.487C16.7933 105.487 17.3382 105.615 17.8041 105.872C18.274 106.129 18.6373 106.512 18.8939 107.021C19.1545 107.526 19.2848 108.158 19.2848 108.916V114.703H17.5139V109.129C17.5139 108.462 17.3421 107.945 16.9986 107.578C16.6551 107.207 16.1773 107.021 15.5653 107.021C15.1467 107.021 14.7716 107.11 14.4399 107.287C14.1122 107.465 13.8536 107.726 13.664 108.069C13.4785 108.409 13.3857 108.82 13.3857 109.301ZM24.5041 114.904C23.9276 114.904 23.4064 114.798 22.9404 114.584C22.4745 114.367 22.1053 114.053 21.8329 113.643C21.5644 113.232 21.4301 112.729 21.4301 112.132C21.4301 111.619 21.5288 111.197 21.7263 110.865C21.9237 110.533 22.1902 110.271 22.5258 110.077C22.8615 109.884 23.2366 109.738 23.6512 109.639C24.0658 109.54 24.4883 109.465 24.9187 109.414C25.4636 109.351 25.9058 109.299 26.2454 109.26C26.585 109.216 26.8318 109.147 26.9858 109.052C27.1398 108.958 27.2167 108.804 27.2167 108.59V108.549C27.2167 108.032 27.0707 107.631 26.7785 107.347C26.4902 107.062 26.0598 106.92 25.4873 106.92C24.891 106.92 24.4212 107.053 24.0776 107.317C23.7381 107.578 23.5031 107.868 23.3728 108.188L21.7085 107.809C21.9059 107.256 22.1942 106.81 22.5732 106.47C22.9562 106.127 23.3965 105.878 23.894 105.724C24.3915 105.566 24.9147 105.487 25.4636 105.487C25.8268 105.487 26.2118 105.53 26.6185 105.617C27.0292 105.7 27.4122 105.854 27.7676 106.079C28.1269 106.304 28.4211 106.626 28.6501 107.045C28.8791 107.459 28.9936 107.998 28.9936 108.662V114.703H27.2641V113.459H27.1931C27.0785 113.688 26.9068 113.913 26.6778 114.134C26.4487 114.355 26.1546 114.539 25.7953 114.685C25.4359 114.831 25.0055 114.904 24.5041 114.904ZM24.8891 113.483C25.3787 113.483 25.7972 113.386 26.1447 113.193C26.4961 112.999 26.7627 112.746 26.9443 112.434C27.1299 112.119 27.2227 111.781 27.2227 111.422V110.249C27.1595 110.312 27.0371 110.371 26.8555 110.427C26.6778 110.478 26.4744 110.523 26.2454 110.563C26.0164 110.598 25.7933 110.632 25.5761 110.664C25.3589 110.691 25.1773 110.715 25.0312 110.735C24.6877 110.778 24.3738 110.851 24.0895 110.954C23.8091 111.056 23.5841 111.204 23.4143 111.398C23.2484 111.587 23.1655 111.84 23.1655 112.156C23.1655 112.594 23.3274 112.926 23.6512 113.151C23.975 113.372 24.3876 113.483 24.8891 113.483ZM31.703 114.703V102.573H33.474V107.08H33.5806C33.6832 106.891 33.8313 106.671 34.0248 106.423C34.2183 106.174 34.4868 105.957 34.8303 105.771C35.1738 105.582 35.6279 105.487 36.1926 105.487C36.927 105.487 37.5825 105.673 38.1589 106.044C38.7354 106.415 39.1876 106.95 39.5153 107.649C39.847 108.348 40.0128 109.189 40.0128 110.172C40.0128 111.155 39.8489 111.998 39.5212 112.701C39.1935 113.4 38.7433 113.939 38.1708 114.318C37.5982 114.693 36.9448 114.881 36.2103 114.881C35.6575 114.881 35.2054 114.788 34.854 114.602C34.5065 114.417 34.2341 114.199 34.0366 113.951C33.8392 113.702 33.6872 113.481 33.5806 113.287H33.4325V114.703H31.703ZM33.4384 110.154C33.4384 110.794 33.5312 111.355 33.7168 111.836C33.9024 112.318 34.1709 112.695 34.5223 112.967C34.8737 113.236 35.3041 113.37 35.8135 113.37C36.3426 113.37 36.7848 113.23 37.1402 112.95C37.4956 112.665 37.7641 112.28 37.9457 111.795C38.1313 111.309 38.2241 110.762 38.2241 110.154C38.2241 109.554 38.1333 109.015 37.9516 108.537C37.774 108.059 37.5055 107.682 37.1461 107.406C36.7908 107.13 36.3465 106.991 35.8135 106.991C35.3002 106.991 34.8658 107.124 34.5105 107.388C34.159 107.653 33.8925 108.022 33.7109 108.496C33.5292 108.97 33.4384 109.522 33.4384 110.154ZM42.2099 114.703V105.605H43.9808V114.703H42.2099ZM43.1042 104.202C42.7963 104.202 42.5317 104.099 42.3106 103.894C42.0934 103.684 41.9848 103.436 41.9848 103.147C41.9848 102.855 42.0934 102.606 42.3106 102.401C42.5317 102.192 42.7963 102.087 43.1042 102.087C43.4122 102.087 43.6748 102.192 43.892 102.401C44.1131 102.606 44.2237 102.855 44.2237 103.147C44.2237 103.436 44.1131 103.684 43.892 103.894C43.6748 104.099 43.4122 104.202 43.1042 104.202ZM50.8185 105.605V107.027H45.8492V105.605H50.8185ZM47.1818 103.426H48.9528V112.032C48.9528 112.375 49.0041 112.634 49.1068 112.808C49.2094 112.977 49.3417 113.094 49.5036 113.157C49.6694 113.216 49.8491 113.246 50.0426 113.246C50.1847 113.246 50.3091 113.236 50.4157 113.216C50.5223 113.197 50.6053 113.181 50.6645 113.169L50.9843 114.632C50.8817 114.671 50.7356 114.711 50.546 114.75C50.3565 114.794 50.1196 114.817 49.8353 114.821C49.3693 114.829 48.935 114.746 48.5323 114.573C48.1295 114.399 47.8037 114.13 47.555 113.767C47.3062 113.404 47.1818 112.948 47.1818 112.399V103.426ZM59.6566 107.826L58.0515 108.111C57.9844 107.905 57.8777 107.71 57.7316 107.524C57.5895 107.339 57.396 107.187 57.1512 107.068C56.9064 106.95 56.6004 106.891 56.2332 106.891C55.7317 106.891 55.3131 107.003 54.9775 107.228C54.6419 107.449 54.4741 107.736 54.4741 108.087C54.4741 108.391 54.5866 108.636 54.8117 108.821C55.0367 109.007 55.4 109.159 55.9015 109.278L57.3467 109.609C58.1838 109.803 58.8076 110.101 59.2183 110.504C59.6289 110.906 59.8343 111.43 59.8343 112.073C59.8343 112.618 59.6763 113.104 59.3604 113.53C59.0485 113.953 58.6122 114.284 58.0515 114.525C57.4947 114.766 56.8491 114.887 56.1147 114.887C55.096 114.887 54.2648 114.669 53.6212 114.235C52.9776 113.797 52.5827 113.175 52.4366 112.369L54.1483 112.109C54.2549 112.555 54.4741 112.892 54.8058 113.121C55.1374 113.347 55.5698 113.459 56.1029 113.459C56.6833 113.459 57.1473 113.339 57.4947 113.098C57.8422 112.853 58.0159 112.555 58.0159 112.203C58.0159 111.919 57.9093 111.68 57.6961 111.487C57.4868 111.293 57.165 111.147 56.7307 111.048L55.1907 110.711C54.3418 110.517 53.714 110.209 53.3073 109.787C52.9045 109.364 52.7031 108.829 52.7031 108.182C52.7031 107.645 52.8532 107.175 53.1533 106.772C53.4534 106.369 53.868 106.056 54.3971 105.83C54.9262 105.601 55.5323 105.487 56.2154 105.487C57.1986 105.487 57.9725 105.7 58.5372 106.127C59.1018 106.549 59.4749 107.116 59.6566 107.826Z" fill="#2D3436"/>
</g>
<rect x="0.521212" y="1.15744" width="170.958" height="170.958" rx="20.3273" stroke="#E1E1E1" stroke-width="1.04242"/>
<defs>
<linearGradient id="paint0_linear_1_169" x1="160.623" y1="28.3782" x2="84.4575" y2="142.719" gradientUnits="userSpaceOnUse">
<stop stop-color="#F1F1F1"/>
<stop offset="1" stop-color="white"/>
</linearGradient>
<clipPath id="clip0_1_169">
<rect y="0.63623" width="172" height="172" rx="20.8485" fill="white"/>
</clipPath>
<clipPath id="clip1_1_169">
<rect width="84.6769" height="172" fill="white" transform="translate(87.3231 0.63623)"/>
</clipPath>
</defs>
</svg>
