<svg width="172" height="172" viewBox="0 0 172 172" fill="none" xmlns="http://www.w3.org/2000/svg">
<rect x="0.521212" y="0.521212" width="170.958" height="170.958" rx="20.3273" fill="url(#paint0_linear_1_167)"/>
<rect x="0.521212" y="0.521212" width="170.958" height="170.958" rx="20.3273" stroke="#E1E1E1" stroke-width="1.04242"/>
<g clip-path="url(#clip0_1_167)">
<path d="M114.413 27.4509C113.476 26.0455 114.023 20.6974 114.413 18.1991L126.476 10.4697L137.718 21.4782C138.187 24.7964 139.171 33.0957 139.358 39.7476C139.592 48.0626 146.502 53.801 148.493 58.1342C150.085 61.6007 150.484 72.1486 150.484 76.9892H145.331C144.511 82.1031 142.661 93.4785 141.817 98.0693C140.763 103.808 142.286 104.042 141.817 107.672C141.443 110.577 135.259 123.951 132.214 130.275C138.772 133.945 151.983 142.548 152.357 147.608C152.732 152.667 148.61 158.616 146.502 160.958L150.484 173.606L105.044 172.67C107.035 166.385 112.071 151.753 116.287 143.509C120.503 135.264 127.256 113.762 130.106 104.042C129.638 100.575 129.13 87.4512 128.935 81.3223L116.287 82.2592C116.404 79.4485 118.606 71.5552 126.476 62.4673C134.346 53.3794 130.692 47.1991 127.881 45.245C126.235 46.0248 124.75 46.578 123.899 46.8914C121.674 47.7112 119.449 44.1979 118.863 42.7925C118.278 41.3872 115.467 35.8829 114.999 34.2434C114.53 32.6038 114.882 30.73 114.999 30.3787C115.116 30.0273 115.584 29.2076 114.413 27.4509Z" fill="#EAC7AC"/>
<path d="M136.431 23.9379C133.151 22.4155 126.827 28.9737 122.377 20.5413C120.972 19.0188 116.756 19.253 116.639 21.4782C116.545 23.2583 113.36 27.1 112.657 27.6855C111.72 27.4981 112.228 23.8204 111.72 23.1177C111.72 10.8214 118.044 8.47876 122.377 7.65897C126.71 6.83919 130.692 7.07413 139.124 11.9925C146.708 16.4161 149.313 39.0454 146.971 47.2427C145.639 51.9018 147.09 54.7045 148.23 56.1759C148.488 56.4747 148.727 56.7507 148.942 57.0003C149.142 57.2131 149.281 57.3543 149.313 57.4315C149.199 57.2984 149.075 57.1544 148.942 57.0003C148.749 56.7947 148.498 56.5222 148.23 56.1759C144.712 52.1121 137.507 43.8498 135.728 40.9191C134.135 38.2958 136.04 28.8566 136.431 23.9379Z" fill="#A08263"/>
<path d="M138.421 10.9389C134.298 7.65974 127.49 9.57257 124.601 10.9389C135.61 7.30844 141.114 21.1276 141.348 26.7489C141.536 31.246 143.925 38.9286 145.096 42.2077C144.159 35.6494 145.799 30.7307 146.033 26.0463C146.267 21.3618 143.574 15.0378 138.421 10.9389Z" fill="#61472D"/>
<path d="M110.783 84.8356C111.157 80.7133 119.215 71.3288 123.196 67.1518C119.261 75.3964 125.148 79.7998 128.584 80.971C128.74 80.2293 129.029 79.2611 128.935 81.3223C128.841 83.3835 129.52 97.6399 129.872 104.51C128.466 107.227 124.211 119.696 122.26 125.591L117.341 140.815C113.781 133.976 114.218 105.877 114.881 92.6821C113.359 91.7843 110.408 88.958 110.783 84.8356Z" fill="#34A853"/>
<path d="M145.682 76.872C147.226 76.5246 150.298 75.5815 150.365 74.5638C150.366 74.5525 150.366 74.5411 150.366 74.5298C150.366 74.5412 150.366 74.5525 150.365 74.5638C150.127 81.686 148.603 97.8006 144.394 105.564C139.124 115.285 141.232 119.267 143.808 122.429C146.385 125.591 158.447 141.049 151.42 154.517C152.162 151.863 152.498 145.546 147.907 141.518C143.316 137.489 135.61 132.5 132.331 130.509C135.142 124.498 140.904 111.865 141.466 109.429C142.157 106.432 141.794 104.317 141.481 102.49L141.466 102.402C140.763 98.3035 142.286 89.0517 145.682 76.872Z" fill="#34A853"/>
<path d="M118.863 93.506C111.743 92.7565 110.587 87.4942 110.9 84.9568C110.9 94.9816 124.953 92.9204 127.764 84.9568C127.764 88.1188 125.984 94.2555 118.863 93.506Z" fill="#2C9A4A"/>
<path d="M132.565 130.279L135.61 123.721C141.984 126.48 154.078 136.259 151.687 153.358C151.678 153.437 151.667 153.512 151.655 153.584C151.666 153.509 151.677 153.433 151.687 153.358C152.027 150.456 150.134 143.159 139.826 135.315L132.565 130.279Z" fill="#2C9A4A"/>
<path d="M123.899 46.8911C123.314 47.0863 121.885 47.1253 120.854 45.7199C119.566 43.9633 118.746 42.9093 118.278 41.2697C118.785 42.1676 120.058 44.1741 121.089 45.0173C122.377 46.0713 125.305 45.7199 126.241 45.0173C126.972 44.4694 131.405 42.5686 133.767 40.925C134.303 40.4451 134.769 40.0028 135.142 39.6301C134.936 40.017 134.434 40.4608 133.767 40.925C132.666 41.9103 131.27 43.0543 129.784 44.0804C132.702 47.2034 136.36 54.9952 127.647 61.1787C129.521 58.9536 132.636 53.2151 130.106 48.0622C129.818 47.4766 128.942 46.1181 127.742 45.3686C126.415 46.1198 125.089 46.6879 123.899 46.8911Z" fill="#D6B49B"/>
<path d="M145.448 78.0428C146.01 69.4234 140.373 65.2386 137.484 64.2236C146.15 72.6557 142.871 71.2503 143.925 78.0428C144.979 84.8353 139.592 98.3032 139.592 105.681C139.592 113.059 135.142 119.383 130.926 127.113C127.553 133.296 124.836 142.884 123.899 146.905C129.13 135.779 139.85 112.708 140.88 109.429C142.169 105.33 141.583 107.204 141.466 99.8256C141.349 92.4476 144.745 88.8171 145.448 78.0428Z" fill="#D6B49B"/>
<path d="M130.79 177.733L151.902 152.502C149.842 159.711 135.424 174.644 132.85 177.588L130.79 177.733Z" fill="#D6B49B"/>
<path d="M136.664 26.2794C136.758 21.3138 134.283 22.6489 133.034 23.9371C137.268 23.9371 136.203 29.9489 135.142 32.9547C135.61 32.7986 136.571 31.2449 136.664 26.2794Z" fill="#D6B49B"/>
<path d="M129.051 87.767C128.677 79.8971 129.832 76.7585 130.457 76.1729C128.934 80.0376 129.871 87.767 131.042 96.6675C132.213 105.568 131.042 108.964 128.232 113.18C125.983 116.553 119.331 135.588 116.286 144.683C117.504 138.968 125.85 115.366 129.871 104.28C129.754 102.055 129.426 95.6369 129.051 87.767Z" fill="#F5D5BC"/>
</g>
<path d="M11.7569 80.0667V67.9366H13.5871V78.4912H19.0835V80.0667H11.7569ZM25.0697 80.2503C24.2168 80.2503 23.4725 80.0548 22.8368 79.6639C22.2011 79.273 21.7075 78.7261 21.3561 78.0233C21.0046 77.3204 20.8289 76.4991 20.8289 75.5594C20.8289 74.6157 21.0046 73.7904 21.3561 73.0836C21.7075 72.3768 22.2011 71.828 22.8368 71.437C23.4725 71.0461 24.2168 70.8507 25.0697 70.8507C25.9226 70.8507 26.6669 71.0461 27.3026 71.437C27.9384 71.828 28.4319 72.3768 28.7833 73.0836C29.1348 73.7904 29.3105 74.6157 29.3105 75.5594C29.3105 76.4991 29.1348 77.3204 28.7833 78.0233C28.4319 78.7261 27.9384 79.273 27.3026 79.6639C26.6669 80.0548 25.9226 80.2503 25.0697 80.2503ZM25.0756 78.7636C25.6284 78.7636 26.0865 78.6175 26.4497 78.3253C26.813 78.0331 27.0815 77.6442 27.2552 77.1585C27.4329 76.6729 27.5218 76.1378 27.5218 75.5534C27.5218 74.973 27.4329 74.4399 27.2552 73.9543C27.0815 73.4646 26.813 73.0718 26.4497 72.7756C26.0865 72.4795 25.6284 72.3314 25.0756 72.3314C24.5189 72.3314 24.0569 72.4795 23.6897 72.7756C23.3264 73.0718 23.0559 73.4646 22.8782 73.9543C22.7045 74.4399 22.6176 74.973 22.6176 75.5534C22.6176 76.1378 22.7045 76.6729 22.8782 77.1585C23.0559 77.6442 23.3264 78.0331 23.6897 78.3253C24.0569 78.6175 24.5189 78.7636 25.0756 78.7636ZM38.3129 73.1902L36.7078 73.4745C36.6407 73.2692 36.5341 73.0737 36.388 72.8881C36.2459 72.7026 36.0524 72.5505 35.8076 72.4321C35.5628 72.3136 35.2567 72.2544 34.8895 72.2544C34.3881 72.2544 33.9695 72.3669 33.6339 72.592C33.2982 72.8131 33.1304 73.0994 33.1304 73.4508C33.1304 73.7549 33.243 73.9997 33.468 74.1853C33.6931 74.3708 34.0564 74.5229 34.5578 74.6413L36.003 74.973C36.8401 75.1665 37.464 75.4646 37.8746 75.8674C38.2853 76.2701 38.4906 76.7933 38.4906 77.4369C38.4906 77.9818 38.3327 78.4675 38.0168 78.8939C37.7049 79.3164 37.2685 79.6481 36.7078 79.889C36.1511 80.1298 35.5055 80.2503 34.7711 80.2503C33.7523 80.2503 32.9212 80.0331 32.2775 79.5988C31.6339 79.1605 31.2391 78.5386 31.093 77.7331L32.8047 77.4724C32.9113 77.9186 33.1304 78.2562 33.4621 78.4853C33.7938 78.7103 34.2262 78.8229 34.7592 78.8229C35.3397 78.8229 35.8036 78.7024 36.1511 78.4616C36.4986 78.2168 36.6723 77.9186 36.6723 77.5672C36.6723 77.2829 36.5657 77.044 36.3525 76.8505C36.1432 76.6571 35.8214 76.511 35.387 76.4123L33.8471 76.0747C32.9982 75.8812 32.3703 75.5732 31.9636 75.1507C31.5609 74.7282 31.3595 74.1932 31.3595 73.5456C31.3595 73.0086 31.5095 72.5387 31.8096 72.1359C32.1097 71.7332 32.5243 71.4193 33.0534 71.1942C33.5825 70.9652 34.1887 70.8507 34.8718 70.8507C35.855 70.8507 36.6289 71.0639 37.1935 71.4904C37.7582 71.9129 38.1313 72.4795 38.3129 73.1902ZM44.5672 80.2503C43.6709 80.2503 42.8989 80.0588 42.2513 79.6758C41.6077 79.2888 41.1102 78.7459 40.7588 78.047C40.4113 77.3441 40.2376 76.5208 40.2376 75.5771C40.2376 74.6453 40.4113 73.824 40.7588 73.1132C41.1102 72.4025 41.5998 71.8477 42.2277 71.4489C42.8594 71.0501 43.5978 70.8507 44.4428 70.8507C44.9561 70.8507 45.4536 70.9356 45.9354 71.1054C46.4171 71.2752 46.8495 71.5417 47.2325 71.905C47.6155 72.2682 47.9176 72.7401 48.1387 73.3205C48.3598 73.897 48.4704 74.5979 48.4704 75.4231V76.051H41.2385V74.7242H46.735C46.735 74.2583 46.6402 73.8457 46.4507 73.4864C46.2611 73.1231 45.9946 72.8368 45.6511 72.6275C45.3115 72.4183 44.9127 72.3136 44.4547 72.3136C43.9571 72.3136 43.5228 72.436 43.1516 72.6808C42.7844 72.9217 42.5001 73.2376 42.2987 73.6285C42.1013 74.0155 42.0026 74.436 42.0026 74.8901V75.9266C42.0026 76.5347 42.1092 77.0519 42.3224 77.4784C42.5396 77.9048 42.8417 78.2306 43.2286 78.4556C43.6156 78.6768 44.0677 78.7873 44.585 78.7873C44.9206 78.7873 45.2266 78.7399 45.503 78.6452C45.7794 78.5465 46.0183 78.4004 46.2197 78.2069C46.421 78.0134 46.575 77.7745 46.6817 77.4902L48.3578 77.7923C48.2236 78.2859 47.9827 78.7182 47.6352 79.0894C47.2917 79.4566 46.8593 79.7429 46.3381 79.9482C45.8209 80.1496 45.2306 80.2503 44.5672 80.2503ZM14.132 102.067L10.7678 89.9366H12.6927L15.0559 99.3303H15.1685L17.6264 89.9366H19.5336L21.9916 99.3362H22.1041L24.4614 89.9366H26.3923L23.0222 102.067H21.1802L18.6274 92.981H18.5326L15.9799 102.067H14.132ZM31.1525 102.25C30.2562 102.25 29.4842 102.059 28.8367 101.676C28.193 101.289 27.6955 100.746 27.3441 100.047C26.9966 99.3441 26.8229 98.5208 26.8229 97.5771C26.8229 96.6453 26.9966 95.824 27.3441 95.1132C27.6955 94.4025 28.1851 93.8477 28.813 93.4489C29.4447 93.0501 30.1831 92.8507 31.0281 92.8507C31.5414 92.8507 32.0389 92.9356 32.5207 93.1054C33.0024 93.2752 33.4348 93.5417 33.8178 93.905C34.2008 94.2682 34.5029 94.7401 34.724 95.3205C34.9451 95.897 35.0557 96.5979 35.0557 97.4231V98.051H27.8238V96.7242H33.3203C33.3203 96.2583 33.2255 95.8457 33.036 95.4864C32.8464 95.1231 32.5799 94.8368 32.2364 94.6275C31.8968 94.4183 31.498 94.3136 31.04 94.3136C30.5424 94.3136 30.1081 94.436 29.7369 94.6808C29.3697 94.9217 29.0854 95.2376 28.884 95.6285C28.6866 96.0155 28.5879 96.436 28.5879 96.8901V97.9266C28.5879 98.5347 28.6945 99.0519 28.9077 99.4784C29.1249 99.9048 29.427 100.231 29.8139 100.456C30.2009 100.677 30.653 100.787 31.1703 100.787C31.5059 100.787 31.8119 100.74 32.0883 100.645C32.3647 100.546 32.6036 100.4 32.805 100.207C33.0063 100.013 33.1603 99.7745 33.267 99.4902L34.9431 99.7923C34.8089 100.286 34.568 100.718 34.2205 101.089C33.877 101.457 33.4446 101.743 32.9234 101.948C32.4062 102.15 31.8159 102.25 31.1525 102.25ZM37.2291 102.067V92.9691H39V102.067H37.2291ZM38.1234 91.5654C37.8154 91.5654 37.5509 91.4628 37.3297 91.2574C37.1126 91.0482 37.004 90.7994 37.004 90.5112C37.004 90.219 37.1126 89.9702 37.3297 89.7649C37.5509 89.5556 37.8154 89.451 38.1234 89.451C38.4314 89.451 38.694 89.5556 38.9112 89.7649C39.1323 89.9702 39.2428 90.219 39.2428 90.5112C39.2428 90.7994 39.1323 91.0482 38.9112 91.2574C38.694 91.4628 38.4314 91.5654 38.1234 91.5654ZM45.4053 105.668C44.6827 105.668 44.0608 105.573 43.5396 105.383C43.0223 105.194 42.5998 104.943 42.2721 104.631C41.9443 104.319 41.6995 103.978 41.5376 103.607L43.0598 102.979C43.1664 103.153 43.3086 103.336 43.4863 103.53C43.6679 103.727 43.9127 103.895 44.2207 104.033C44.5326 104.171 44.9334 104.24 45.423 104.24C46.0943 104.24 46.6491 104.076 47.0874 103.749C47.5257 103.425 47.7448 102.908 47.7448 102.197V100.408H47.6323C47.5257 100.602 47.3717 100.817 47.1703 101.054C46.9729 101.291 46.7004 101.496 46.3529 101.67C46.0055 101.844 45.5533 101.93 44.9966 101.93C44.278 101.93 43.6304 101.763 43.0539 101.427C42.4814 101.087 42.0273 100.588 41.6916 99.9285C41.36 99.2651 41.1941 98.4498 41.1941 97.4824C41.1941 96.515 41.358 95.6858 41.6857 94.9948C42.0174 94.3038 42.4715 93.7746 43.048 93.4074C43.6245 93.0363 44.278 92.8507 45.0084 92.8507C45.5731 92.8507 46.0292 92.9454 46.3766 93.135C46.7241 93.3206 46.9946 93.5377 47.1881 93.7865C47.3855 94.0353 47.5375 94.2544 47.6441 94.4439H47.7744V92.9691H49.5098V102.268C49.5098 103.05 49.3282 103.692 48.9649 104.193C48.6016 104.694 48.1101 105.066 47.4901 105.306C46.8741 105.547 46.1792 105.668 45.4053 105.668ZM45.3875 100.462C45.8969 100.462 46.3273 100.343 46.6787 100.106C47.0341 99.8653 47.3026 99.5218 47.4842 99.0756C47.6698 98.6255 47.7626 98.0865 47.7626 97.4587C47.7626 96.8466 47.6718 96.3077 47.4901 95.8417C47.3085 95.3758 47.042 95.0125 46.6905 94.7519C46.3391 94.4874 45.9048 94.3551 45.3875 94.3551C44.8545 94.3551 44.4102 94.4933 44.0549 94.7697C43.6995 95.0421 43.431 95.4133 43.2494 95.8832C43.0717 96.3531 42.9828 96.8782 42.9828 97.4587C42.9828 98.0549 43.0736 98.5781 43.2553 99.0282C43.4369 99.4784 43.7054 99.8298 44.0608 100.083C44.4201 100.335 44.8623 100.462 45.3875 100.462ZM53.8643 96.665V102.067H52.0934V89.9366H53.8406V94.4499H53.9532C54.1664 93.9602 54.4921 93.5713 54.9304 93.2831C55.3687 92.9948 55.9413 92.8507 56.6481 92.8507C57.2719 92.8507 57.8168 92.979 58.2828 93.2357C58.7527 93.4923 59.1159 93.8753 59.3726 94.3847C59.6332 94.8901 59.7635 95.5219 59.7635 96.28V102.067H57.9926V96.4932C57.9926 95.8259 57.8208 95.3087 57.4773 94.9415C57.1337 94.5703 56.656 94.3847 56.0439 94.3847C55.6254 94.3847 55.2503 94.4735 54.9186 94.6512C54.5909 94.8289 54.3322 95.0895 54.1427 95.4331C53.9571 95.7726 53.8643 96.1833 53.8643 96.665ZM66.5819 92.9691V94.3906H61.6126V92.9691H66.5819ZM62.9453 90.7895H64.7162V99.3954C64.7162 99.739 64.7675 99.9976 64.8702 100.171C64.9728 100.341 65.1051 100.458 65.267 100.521C65.4329 100.58 65.6125 100.61 65.806 100.61C65.9481 100.61 66.0725 100.6 66.1791 100.58C66.2857 100.56 66.3687 100.544 66.4279 100.533L66.7477 101.996C66.6451 102.035 66.499 102.075 66.3094 102.114C66.1199 102.157 65.883 102.181 65.5987 102.185C65.1328 102.193 64.6984 102.11 64.2957 101.936C63.8929 101.763 63.5672 101.494 63.3184 101.131C63.0696 100.768 62.9453 100.312 62.9453 99.7627V90.7895Z" fill="#2D3436"/>
<defs>
<linearGradient id="paint0_linear_1_167" x1="160.623" y1="27.7419" x2="84.4575" y2="142.083" gradientUnits="userSpaceOnUse">
<stop stop-color="#F1F1F1"/>
<stop offset="1" stop-color="white"/>
</linearGradient>
<clipPath id="clip0_1_167">
<rect width="84.6769" height="172" fill="white" transform="translate(87.3231)"/>
</clipPath>
</defs>
</svg>
