<svg width="172" height="173" viewBox="0 0 172 173" fill="none" xmlns="http://www.w3.org/2000/svg">
<g clip-path="url(#clip0_1_170)">
<rect y="0.63623" width="172" height="172" rx="20.8485" fill="url(#paint0_linear_1_170)"/>
<g clip-path="url(#clip1_1_170)">
<path d="M111.206 25.6596L116.637 26.1388C116.637 29.8128 115.04 28.8544 114.082 28.8544C113.315 28.8544 114.401 31.3037 115.04 32.5283L111.206 38.1191L105.136 51.5371C107.532 49.9397 120.631 49.9397 125.263 50.0994C128.969 50.2272 134.794 47.9163 137.244 46.7449L151.78 47.5436L159.607 52.3357C160.139 55.0513 161.204 61.7283 161.204 66.7121C161.204 71.6959 158.542 73.4743 157.211 73.7405L145.71 65.4342L145.071 58.246H112.005L106.414 57.4473C105.732 57.4918 104.832 57.5537 103.858 57.6253C99.5136 63.0071 104.391 62.6243 107.373 61.7602L123.506 60.4823L127.18 63.0381C119.832 68.6289 97.3092 67.6705 96.0313 64.6355C95.009 62.2075 96.4573 59.3642 97.3092 58.246C95.5521 58.5655 94.1145 57.2876 92.9963 56.1694C91.8781 55.0513 90.2808 57.6071 90.9198 58.7252C91.5587 59.8434 91.0795 62.2395 89.3224 62.2395C87.5653 62.2395 86.9263 59.6837 87.5653 56.8084C88.2042 53.9331 91.0795 53.7734 92.9963 53.7734C94.5298 53.7734 97.1495 53.3474 98.2676 53.1344C99.29 51.7287 106.042 40.7282 109.29 35.4036V28.8544L111.206 25.6596Z" fill="#EAC7AC"/>
<path d="M142.994 21.8259L148.106 21.187L153.377 23.4233L160.405 33.0075L158.968 39.0776L152.259 44.5086L145.071 43.5502L139.799 37.1607V28.3752L142.994 21.8259Z" fill="#EAC7AC"/>
<path d="M127.659 90.8324C128.809 89.1712 132.185 81.1949 133.729 77.4145C141.556 78.1599 157.211 79.9383 157.211 81.0884C157.211 82.2386 156.252 88.9156 155.773 92.1103C145.923 92.3765 126.509 92.4937 127.659 90.8324Z" fill="#EAC7AC"/>
<path d="M151.62 24.3819C151.364 22.5928 148.745 22.4651 147.467 22.6248C142.539 21.6392 141.955 26.4869 142.432 30.0568C143.622 29.6925 145.752 29.2565 146.349 29.9727C147.147 30.9311 145.55 30.9311 145.071 30.6117C144.687 30.3561 143.208 30.5052 142.517 30.6117C142.564 30.8902 142.617 31.1577 142.675 31.4103C143.473 34.9246 142.675 37.0011 142.355 38.5985C142.1 39.8764 143.314 42.1127 143.953 43.0712C143.825 45.7547 138.894 47.1711 136.445 47.5438L133.41 44.5088C134.262 43.3374 135.998 39.1736 136.125 31.8896C136.285 22.7846 141.237 20.069 143.473 18.7911C145.262 17.7688 147.733 18.7911 148.745 19.4301C151.939 18.4717 154.016 18.9509 157.85 21.5067C161.683 24.0625 161.364 31.7299 161.204 33.487C161.044 35.2441 161.524 35.883 163.121 40.1959C164.399 43.6463 162.589 46.5322 161.524 47.5438C161.524 48.694 160.246 49.6204 159.607 49.9399C159.223 48.5342 155.294 46.5854 153.377 45.7867C152.866 44.2533 153.59 41.4206 154.016 40.1959C155.166 39.557 155.986 38.0129 156.252 37.3207C156.359 37.4272 156.891 37.5762 158.169 37.3207C159.447 37.0651 159.234 34.0194 158.968 32.5286C158.222 32.3688 156.508 32.0174 155.613 31.8896C155.277 31.8415 154.809 31.3442 154.312 30.6117C153.521 30.5052 151.716 30.3561 150.821 30.6117C149.927 30.8672 149.81 30.2922 149.863 29.9727C150.641 29.6532 152.54 29.206 153.906 29.9727C152.868 28.2419 151.817 25.7633 151.62 24.3819Z" fill="#A08263"/>
<path d="M158.808 22.4652C155.869 18.5037 150.874 18.8977 148.745 19.5899L148.265 20.7081C149.703 20.7081 152.738 22.7847 152.898 24.382C153.026 25.6599 157.637 30.665 159.926 33.0078C160.437 37.0971 158.222 42.1661 157.051 44.1895C161.843 40.9947 162.482 27.4171 158.808 22.4652Z" fill="#61472D"/>
<path d="M147.946 20.7081L148.425 19.4302C141.237 15.5965 138.362 24.382 137.723 26.4586C137.084 28.5352 137.563 35.2442 137.723 39.2376C137.85 42.4323 135.859 44.9349 134.847 45.7868C137.084 46.1063 139.959 36.6818 139.48 33.0078C139.001 29.3339 141.876 21.8262 143.154 21.986C144.176 22.1138 146.774 21.1873 147.946 20.7081Z" fill="#61472D"/>
<path d="M113.283 27.0973C112.516 26.4584 111.579 26.8311 111.207 27.0973C108.81 27.4168 109.929 33.6466 109.769 35.8829C109.642 37.663 104.022 44.9676 101.186 48.4499C101.168 48.4737 101.154 48.4912 101.143 48.5021C101.157 48.4848 101.171 48.4674 101.186 48.4499C101.926 47.4363 108.335 35.044 108.491 33.3271C108.651 31.57 106.414 26.2987 107.373 26.2987C108.14 26.2987 109.609 23.104 110.248 21.5066C110.568 21.4534 111.622 21.3788 113.283 21.5066C115.36 21.6663 116.638 25.6598 116.638 26.2987C116.638 26.9377 114.242 27.896 113.283 27.0973Z" fill="#F5D5BC"/>
<path d="M87.8849 56.489C88.2577 54.9449 89.3865 51.8886 90.9199 52.0164C92.7979 52.1729 97.4358 53.556 99.2755 53.612C99.3129 53.6125 99.3497 53.6131 99.386 53.6137C99.3504 53.6137 99.3135 53.6132 99.2755 53.612C96.3517 53.5734 90.1561 54.0917 87.8849 56.489Z" fill="#F5D5BC"/>
<path d="M140.918 45.1477C139.001 45.9144 132.771 48.4489 129.896 49.6203C137.244 47.2242 140.918 48.5021 143.314 48.1827C145.71 47.8632 146.029 50.419 150.821 50.8982L151.053 50.9214C155.624 51.378 155.959 51.4114 157.53 53.454C159.128 55.5306 155.454 58.0864 155.933 60.8019C156.316 62.9743 159.287 65.7538 160.725 66.8719C161.79 65.4875 163.505 61.0894 161.843 54.5722C159.767 46.4256 154.176 46.4256 151.46 45.1477C148.745 43.8698 143.314 44.1892 140.918 45.1477Z" fill="#F5D5BC"/>
<path d="M136.765 63.8369C135.487 63.198 136.232 60.3759 136.765 59.0448C139.48 58.7253 138.522 59.8435 138.681 61.4409C138.841 63.0382 138.362 64.6356 136.765 63.8369Z" fill="#F5D5BC"/>
<path d="M127.66 90.6728C128.043 88.5004 130.375 81.6742 131.493 78.5327C132.345 78.1068 134.081 77.5104 134.209 78.5327C134.368 79.8106 132.611 82.5262 131.493 84.2833C130.599 85.689 128.565 89.1287 127.66 90.6728Z" fill="#F5D5BC"/>
<path d="M139.32 92.2701C138.042 88.9476 138.362 81.7275 138.681 78.5327C144.219 79.2249 155.166 81.1205 154.655 83.1651C154.016 85.7209 140.918 96.4233 139.32 92.2701Z" fill="#F5D5BC"/>
<path d="M112.165 34.6051C112.932 32.3049 114.401 32.5818 115.04 33.0077C115.2 34.126 111.366 39.2374 110.088 43.3906C109.066 46.7131 108.171 49.5671 107.852 50.5788L104.769 51.6579C104.725 51.704 104.686 51.7113 104.657 51.6969L104.769 51.6579C104.887 51.5334 105.043 51.1259 105.136 50.0996C105.296 48.3425 111.206 37.4804 112.165 34.6051Z" fill="#D6B49B"/>
<path d="M90.76 58.4059C91.1434 58.5337 94.5405 58.3527 96.1911 58.2462C95.9249 58.1929 95.2646 58.0545 94.7535 57.9267C94.1145 57.767 92.6769 56.1696 91.0795 56.3293C89.4821 56.4891 90.2808 58.2462 90.76 58.4059Z" fill="#D6B49B"/>
<path d="M132.132 63.0383C129.832 62.5271 122.335 64.8486 118.874 66.0733C126.381 60.4825 118.874 61.4409 117.436 61.4409C115.999 61.4409 103.379 63.6772 101.942 62.2396C100.504 60.802 102.9 58.8851 104.018 57.6072C105.136 56.3293 110.088 57.9267 112.165 58.2462C114.241 58.5656 118.874 56.0098 123.187 54.4125C127.5 52.8151 131.174 53.7735 134.848 56.0098C138.521 58.2462 144.112 56.8085 148.106 55.6904C152.099 54.5722 151.939 57.2877 150.342 58.8851C149.064 60.163 143.527 59.737 140.918 59.3643L138.681 63.0383C138.937 59.2046 137.297 58.9916 136.445 59.3643C135.966 60.802 134.432 63.5494 132.132 63.0383Z" fill="#D6B49B"/>
<path d="M153.697 41.7932C153.441 42.1766 153.271 44.5088 153.217 45.6269C149.895 44.0934 145.124 44.2425 143.154 44.5088C144.048 43.6142 143.527 41.5802 143.154 40.6751C143.793 41.74 145.678 43.8698 148.106 43.8698C150.534 43.8698 152.845 42.4854 153.697 41.7932Z" fill="#D6B49B"/>
<path d="M133.57 83.4846C132.547 85.1459 131.12 88.8625 130.535 90.5131C131.972 90.7793 134.848 91.0881 134.848 90.1936C134.848 89.2991 136.764 81.834 137.723 78.2133C137.297 77.7341 136.445 77.0632 136.445 78.2133C136.445 79.651 134.848 81.4081 133.57 83.4846Z" fill="#D6B49B"/>
<path d="M132.451 62.3994C129.512 65.8498 128.884 70.0136 128.937 71.6642C130.982 72.3032 134.688 63.7306 136.285 59.3644L132.451 62.3994Z" fill="#2C9A4A"/>
<path d="M130.694 79.3316C131.205 78.6926 131.227 77.1485 131.174 76.4563L137.244 71.6642C138.255 72.7291 140.63 75.0506 142.036 75.8174C143.793 76.7758 148.265 72.9421 150.981 71.6642C153.696 70.3863 154.974 72.7824 155.294 74.5395C155.549 75.9452 157.743 77.468 158.808 78.0537C158.382 79.0654 157.498 81.3443 157.37 82.3666C157.211 83.6445 148.265 83.6445 141.556 81.0887C136.189 79.0441 132.079 79.0654 130.694 79.3316Z" fill="#2C9A4A"/>
<path d="M146.189 133.802C145.167 130.991 141.184 125.602 139.32 123.259C147.946 123.259 155.294 146.581 156.572 151.213C157.594 154.919 166.901 168.838 171.427 175.334C169.191 172.565 163.536 165.43 158.808 159.04C152.898 151.054 147.467 137.316 146.189 133.802Z" fill="#2C9A4A"/>
<path d="M135.007 62.08C135.391 61.9522 136.125 60.3229 136.445 59.5242C135.678 62.4634 136.551 63.8371 137.084 64.1566C136.764 66.2332 138.202 67.0319 139.16 70.3863C139.927 73.0699 146.615 72.8889 149.863 72.4629C149.011 73.3149 146.54 75.2424 143.473 76.1369C139.64 77.255 137.084 71.5045 137.084 72.4629C137.084 73.4213 134.688 75.6577 134.688 76.4564C134.688 77.0953 132.345 77.0421 131.174 76.9356C129.257 74.3798 128.884 72.037 128.937 71.185C131.493 70.2266 134.528 62.2397 135.007 62.08Z" fill="#34A853"/>
<path d="M155.454 90.673C153.665 89.9062 136.392 89.9275 127.979 90.034C119.513 100.736 118.235 126.454 120.311 132.364C122.388 138.275 126.062 156.644 126.062 165.27C126.062 172.171 127.979 183.054 128.937 187.633H138.042C136.924 183.108 134.496 173.225 133.729 169.903C132.963 166.58 134.049 158.189 134.688 154.408C135.486 150.947 137.276 141.406 138.042 130.927C139.001 117.828 140.438 124.058 143.473 126.454C146.508 128.85 154.655 150.574 161.364 161.437C166.731 170.126 177.338 182.522 181.97 187.633C184.153 185.663 188.136 181.595 186.602 181.084C184.686 180.445 168.872 156.485 168.073 150.574C167.274 144.664 159.926 136.518 156.732 129.968C153.537 123.419 155.454 112.397 154.655 106.008C153.856 99.6183 149.064 97.7014 148.904 93.708C148.777 90.5132 153.217 90.3535 155.454 90.673Z" fill="#34A853"/>
<path d="M145.71 59.8437L140.918 59.3644C140.651 59.6307 139.959 60.5784 139.32 62.2397C138.681 63.901 137.457 64.2098 136.924 64.1566C134.368 74.5395 148.904 73.1018 150.981 71.9837C153.058 70.8655 154.336 72.6226 154.495 74.22C154.623 75.4979 157.317 77.5212 158.648 78.3732C159.287 77.2231 160.086 72.5694 160.406 70.3863C157.53 72.7824 151.62 67.9903 149.543 66.3929C147.882 65.115 146.295 61.4943 145.71 59.8437Z" fill="#47BC67"/>
<path d="M148.106 94.9858C147.722 89.8743 153.271 89.8743 156.093 90.5132C156.945 95.5715 159 106.806 160.406 111.279C162.163 116.87 166.795 125.496 166.955 133.163C167.083 139.297 172.226 153.077 174.782 159.2C179.894 163.954 186.39 177.474 188.999 183.64C182.716 177.464 170.054 163.928 169.67 159.2C169.191 153.29 165.996 146.262 160.406 139.872C154.815 133.483 154.495 123.579 154.495 111.279C154.495 98.9793 148.585 101.375 148.106 94.9858Z" fill="#47BC67"/>
<path d="M133.729 147.539C133.729 143.45 136.818 134.547 138.362 130.607C141.397 142.747 138.362 169.743 138.362 172.299C138.362 174.343 139.001 185.291 139.32 190.509C135.487 186.515 132.611 169.583 132.611 168.146C132.611 166.708 133.729 152.651 133.729 147.539Z" fill="#47BC67"/>
</g>
<path d="M15.6837 69.7029H11.7569V57.5729H15.8081C16.9967 57.5729 18.0174 57.8157 18.8703 58.3014C19.7231 58.7831 20.3766 59.4761 20.8307 60.3803C21.2888 61.2806 21.5178 62.3605 21.5178 63.6201C21.5178 64.8837 21.2868 65.9695 20.8248 66.8777C20.3668 67.7859 19.7034 68.4848 18.8347 68.9744C17.966 69.4601 16.9157 69.7029 15.6837 69.7029ZM13.5871 68.1037H15.5831C16.507 68.1037 17.275 67.93 17.8871 67.5825C18.4991 67.2311 18.9571 66.7237 19.2612 66.0603C19.5652 65.393 19.7172 64.5796 19.7172 63.6201C19.7172 62.6685 19.5652 61.861 19.2612 61.1977C18.9611 60.5343 18.5129 60.0309 17.9167 59.6873C17.3204 59.3438 16.5801 59.172 15.6956 59.172H13.5871V68.1037ZM27.7809 69.8865C26.8846 69.8865 26.1126 69.695 25.4651 69.312C24.8214 68.925 24.3239 68.3821 23.9725 67.6832C23.625 66.9804 23.4513 66.1571 23.4513 65.2134C23.4513 64.2815 23.625 63.4602 23.9725 62.7495C24.3239 62.0387 24.8135 61.4839 25.4414 61.0851C26.0731 60.6863 26.8115 60.4869 27.6565 60.4869C28.1698 60.4869 28.6674 60.5718 29.1491 60.7416C29.6308 60.9114 30.0632 61.1779 30.4462 61.5412C30.8292 61.9045 31.1313 62.3763 31.3524 62.9568C31.5735 63.5332 31.6841 64.2341 31.6841 65.0594V65.6872H24.4523V64.3605H29.9487C29.9487 63.8945 29.8539 63.4819 29.6644 63.1226C29.4748 62.7593 29.2083 62.4731 28.8648 62.2638C28.5252 62.0545 28.1264 61.9499 27.6684 61.9499C27.1708 61.9499 26.7365 62.0723 26.3653 62.3171C25.9981 62.5579 25.7138 62.8738 25.5124 63.2647C25.315 63.6517 25.2163 64.0722 25.2163 64.5263V65.5628C25.2163 66.1709 25.3229 66.6882 25.5361 67.1146C25.7533 67.5411 26.0554 67.8668 26.4423 68.0919C26.8293 68.313 27.2814 68.4236 27.7987 68.4236C28.1343 68.4236 28.4403 68.3762 28.7167 68.2814C28.9931 68.1827 29.232 68.0366 29.4334 67.8431C29.6348 67.6496 29.7888 67.4107 29.8954 67.1264L31.5715 67.4285C31.4373 67.9221 31.1964 68.3545 30.8489 68.7256C30.5054 69.0928 30.0731 69.3791 29.5518 69.5844C29.0346 69.7858 28.4443 69.8865 27.7809 69.8865ZM41.3795 60.6054L38.0805 69.7029H36.1852L32.8802 60.6054H34.7814L37.0854 67.6062H37.1802L39.4783 60.6054H41.3795ZM46.8638 69.8865C45.9675 69.8865 45.1955 69.695 44.5479 69.312C43.9043 68.925 43.4068 68.3821 43.0554 67.6832C42.7079 66.9804 42.5342 66.1571 42.5342 65.2134C42.5342 64.2815 42.7079 63.4602 43.0554 62.7495C43.4068 62.0387 43.8964 61.4839 44.5243 61.0851C45.156 60.6863 45.8944 60.4869 46.7394 60.4869C47.2527 60.4869 47.7502 60.5718 48.232 60.7416C48.7137 60.9114 49.1461 61.1779 49.5291 61.5412C49.9121 61.9045 50.2142 62.3763 50.4353 62.9568C50.6564 63.5332 50.767 64.2341 50.767 65.0594V65.6872H43.5351V64.3605H49.0316C49.0316 63.8945 48.9368 63.4819 48.7473 63.1226C48.5577 62.7593 48.2912 62.4731 47.9477 62.2638C47.6081 62.0545 47.2093 61.9499 46.7513 61.9499C46.2537 61.9499 45.8194 62.0723 45.4482 62.3171C45.081 62.5579 44.7967 62.8738 44.5953 63.2647C44.3979 63.6517 44.2992 64.0722 44.2992 64.5263V65.5628C44.2992 66.1709 44.4058 66.6882 44.619 67.1146C44.8362 67.5411 45.1383 67.8668 45.5252 68.0919C45.9122 68.313 46.3643 68.4236 46.8816 68.4236C47.2172 68.4236 47.5232 68.3762 47.7996 68.2814C48.076 68.1827 48.3149 68.0366 48.5163 67.8431C48.7176 67.6496 48.8716 67.4107 48.9782 67.1264L50.6544 67.4285C50.5202 67.9221 50.2793 68.3545 49.9318 68.7256C49.5883 69.0928 49.1559 69.3791 48.6347 69.5844C48.1175 69.7858 47.5271 69.8865 46.8638 69.8865ZM54.7113 57.5729V69.7029H52.9403V57.5729H54.7113ZM61.1343 69.8865C60.2814 69.8865 59.5371 69.6911 58.9014 69.3001C58.2657 68.9092 57.7721 68.3624 57.4207 67.6595C57.0693 66.9567 56.8936 66.1354 56.8936 65.1956C56.8936 64.2519 57.0693 63.4266 57.4207 62.7198C57.7721 62.013 58.2657 61.4642 58.9014 61.0733C59.5371 60.6824 60.2814 60.4869 61.1343 60.4869C61.9872 60.4869 62.7315 60.6824 63.3673 61.0733C64.003 61.4642 64.4966 62.013 64.848 62.7198C65.1994 63.4266 65.3751 64.2519 65.3751 65.1956C65.3751 66.1354 65.1994 66.9567 64.848 67.6595C64.4966 68.3624 64.003 68.9092 63.3673 69.3001C62.7315 69.6911 61.9872 69.8865 61.1343 69.8865ZM61.1403 68.3999C61.6931 68.3999 62.1511 68.2538 62.5144 67.9616C62.8776 67.6694 63.1461 67.2804 63.3199 66.7948C63.4976 66.3091 63.5864 65.7741 63.5864 65.1897C63.5864 64.6092 63.4976 64.0762 63.3199 63.5905C63.1461 63.1009 62.8776 62.708 62.5144 62.4118C62.1511 62.1157 61.6931 61.9676 61.1403 61.9676C60.5835 61.9676 60.1215 62.1157 59.7543 62.4118C59.391 62.708 59.1206 63.1009 58.9429 63.5905C58.7691 64.0762 58.6823 64.6092 58.6823 65.1897C58.6823 65.7741 58.7691 66.3091 58.9429 66.7948C59.1206 67.2804 59.391 67.6694 59.7543 67.9616C60.1215 68.2538 60.5835 68.3999 61.1403 68.3999ZM67.5603 73.1145V60.6054H69.2898V62.0802H69.4379C69.5406 61.8906 69.6886 61.6715 69.8821 61.4227C70.0756 61.174 70.3441 60.9568 70.6876 60.7712C71.0311 60.5817 71.4852 60.4869 72.0499 60.4869C72.7843 60.4869 73.4398 60.6725 74.0163 61.0437C74.5928 61.4148 75.0449 61.9499 75.3726 62.6488C75.7043 63.3477 75.8701 64.1887 75.8701 65.1719C75.8701 66.1551 75.7063 66.9981 75.3785 67.701C75.0508 68.3999 74.6007 68.9388 74.0281 69.3179C73.4556 69.693 72.8021 69.8806 72.0677 69.8806C71.5148 69.8806 71.0627 69.7878 70.7113 69.6022C70.3638 69.4166 70.0914 69.1995 69.894 68.9507C69.6965 68.7019 69.5445 68.4808 69.4379 68.2873H69.3313V73.1145H67.5603ZM69.2957 65.1541C69.2957 65.7938 69.3885 66.3545 69.5741 66.8362C69.7597 67.318 70.0282 67.695 70.3796 67.9675C70.7311 68.236 71.1615 68.3703 71.6708 68.3703C72.1999 68.3703 72.6422 68.2301 72.9975 67.9497C73.3529 67.6654 73.6214 67.2804 73.8031 66.7948C73.9886 66.3091 74.0814 65.7622 74.0814 65.1541C74.0814 64.554 73.9906 64.015 73.809 63.5372C73.6313 63.0594 73.3628 62.6823 73.0035 62.4059C72.6481 62.1295 72.2039 61.9913 71.6708 61.9913C71.1575 61.9913 70.7232 62.1236 70.3678 62.3882C70.0164 62.6527 69.7498 63.0219 69.5682 63.4957C69.3866 63.9696 69.2957 64.5224 69.2957 65.1541ZM13.3857 86.3012V91.7029H11.6147V79.5729H13.362V84.0861H13.4745C13.6877 83.5965 14.0135 83.2075 14.4518 82.9193C14.8901 82.631 15.4626 82.4869 16.1694 82.4869C16.7933 82.4869 17.3382 82.6152 17.8041 82.8719C18.274 83.1286 18.6373 83.5116 18.8939 84.0209C19.1545 84.5264 19.2849 85.1581 19.2849 85.9163V91.7029H17.5139V86.1295C17.5139 85.4622 17.3422 84.9449 16.9986 84.5777C16.6551 84.2065 16.1773 84.0209 15.5653 84.0209C15.1467 84.0209 14.7716 84.1098 14.4399 84.2875C14.1122 84.4652 13.8536 84.7258 13.6641 85.0693C13.4785 85.4089 13.3857 85.8195 13.3857 86.3012ZM25.7775 91.8865C24.8812 91.8865 24.1092 91.695 23.4617 91.312C22.818 90.925 22.3205 90.3821 21.9691 89.6832C21.6216 88.9804 21.4479 88.1571 21.4479 87.2134C21.4479 86.2815 21.6216 85.4602 21.9691 84.7495C22.3205 84.0387 22.8101 83.4839 23.438 83.0851C24.0697 82.6863 24.8081 82.4869 25.6531 82.4869C26.1664 82.4869 26.664 82.5718 27.1457 82.7416C27.6274 82.9114 28.0598 83.1779 28.4428 83.5412C28.8258 83.9045 29.1279 84.3763 29.349 84.9568C29.5701 85.5332 29.6807 86.2341 29.6807 87.0594V87.6872H22.4488V86.3605H27.9453C27.9453 85.8945 27.8505 85.4819 27.661 85.1226C27.4714 84.7593 27.2049 84.4731 26.8614 84.2638C26.5218 84.0545 26.123 83.9499 25.665 83.9499C25.1674 83.9499 24.7331 84.0723 24.3619 84.3171C23.9947 84.5579 23.7104 84.8738 23.509 85.2647C23.3116 85.6517 23.2129 86.0722 23.2129 86.5263V87.5628C23.2129 88.1709 23.3195 88.6882 23.5327 89.1146C23.7499 89.5411 24.052 89.8668 24.4389 90.0919C24.8259 90.313 25.278 90.4236 25.7953 90.4236C26.1309 90.4236 26.4369 90.3762 26.7133 90.2814C26.9897 90.1827 27.2286 90.0366 27.43 89.8431C27.6314 89.6496 27.7853 89.4107 27.892 89.1264L29.5681 89.4285C29.4339 89.9221 29.193 90.3545 28.8455 90.7256C28.502 91.0928 28.0696 91.3791 27.5484 91.5844C27.0312 91.7858 26.4409 91.8865 25.7775 91.8865ZM34.5016 91.9043C33.9251 91.9043 33.4039 91.7977 32.9379 91.5844C32.472 91.3673 32.1028 91.0534 31.8304 90.6427C31.5619 90.2321 31.4276 89.7286 31.4276 89.1324C31.4276 88.6191 31.5263 88.1966 31.7238 87.8649C31.9212 87.5332 32.1877 87.2706 32.5233 87.0771C32.859 86.8837 33.2341 86.7376 33.6487 86.6388C34.0633 86.5401 34.4858 86.4651 34.9162 86.4138C35.4611 86.3506 35.9033 86.2993 36.2429 86.2598C36.5825 86.2163 36.8293 86.1472 36.9833 86.0525C37.1373 85.9577 37.2143 85.8037 37.2143 85.5905V85.549C37.2143 85.0318 37.0682 84.631 36.776 84.3467C36.4877 84.0624 36.0573 83.9203 35.4848 83.9203C34.8885 83.9203 34.4187 84.0525 34.0751 84.3171C33.7356 84.5777 33.5006 84.8679 33.3703 85.1877L31.706 84.8087C31.9034 84.2559 32.1917 83.8097 32.5707 83.4701C32.9537 83.1266 33.394 82.8778 33.8915 82.7238C34.389 82.5659 34.9122 82.4869 35.4611 82.4869C35.8244 82.4869 36.2093 82.5304 36.616 82.6172C37.0267 82.7001 37.4097 82.8541 37.7651 83.0792C38.1244 83.3043 38.4186 83.6261 38.6476 84.0446C38.8766 84.4592 38.9911 84.9982 38.9911 85.6616V91.7029H37.2616V90.4591H37.1906C37.0761 90.6881 36.9043 90.9132 36.6753 91.1343C36.4463 91.3554 36.1521 91.539 35.7928 91.6851C35.4334 91.8312 35.003 91.9043 34.5016 91.9043ZM34.8866 90.4828C35.3762 90.4828 35.7947 90.386 36.1422 90.1926C36.4936 89.9991 36.7602 89.7464 36.9418 89.4344C37.1274 89.1186 37.2202 88.7809 37.2202 88.4216V87.2489C37.157 87.3121 37.0346 87.3713 36.853 87.4266C36.6753 87.4779 36.4719 87.5233 36.2429 87.5628C36.0139 87.5984 35.7908 87.6319 35.5736 87.6635C35.3564 87.6911 35.1748 87.7148 35.0287 87.7346C34.6852 87.778 34.3713 87.8511 34.087 87.9537C33.8066 88.0564 33.5816 88.2045 33.4118 88.3979C33.2459 88.5875 33.163 88.8402 33.163 89.1561C33.163 89.5944 33.3249 89.926 33.6487 90.1511C33.9725 90.3722 34.3851 90.4828 34.8866 90.4828ZM43.3293 79.5729V91.7029H41.5584V79.5729H43.3293ZM50.167 82.6054V84.0269H45.1977V82.6054H50.167ZM46.5303 80.4258H48.3013V89.0317C48.3013 89.3752 48.3526 89.6338 48.4553 89.8076C48.5579 89.9774 48.6902 90.0939 48.8521 90.157C49.0179 90.2163 49.1976 90.2459 49.3911 90.2459C49.5332 90.2459 49.6576 90.236 49.7642 90.2163C49.8708 90.1965 49.9537 90.1807 50.013 90.1689L50.3328 91.6318C50.2301 91.6713 50.084 91.7108 49.8945 91.7503C49.705 91.7937 49.4681 91.8174 49.1838 91.8214C48.7178 91.8293 48.2835 91.7463 47.8807 91.5726C47.478 91.3989 47.1522 91.1304 46.9035 90.7671C46.6547 90.4038 46.5303 89.9478 46.5303 89.3989V80.4258ZM54.3008 86.3012V91.7029H52.5299V79.5729H54.2771V84.0861H54.3897C54.6029 83.5965 54.9287 83.2075 55.3669 82.9193C55.8052 82.631 56.3778 82.4869 57.0846 82.4869C57.7085 82.4869 58.2534 82.6152 58.7193 82.8719C59.1892 83.1286 59.5524 83.5116 59.8091 84.0209C60.0697 84.5264 60.2 85.1581 60.2 85.9163V91.7029H58.4291V86.1295C58.4291 85.4622 58.2573 84.9449 57.9138 84.5777C57.5703 84.2065 57.0925 84.0209 56.4804 84.0209C56.0619 84.0209 55.6868 84.1098 55.3551 84.2875C55.0274 84.4652 54.7687 84.7258 54.5792 85.0693C54.3936 85.4089 54.3008 85.8195 54.3008 86.3012ZM63.5654 95.1145C63.3008 95.1145 63.06 95.0927 62.8428 95.0493C62.6256 95.0098 62.4637 94.9664 62.3571 94.919L62.7836 93.4679C63.1073 93.5548 63.3956 93.5923 63.6483 93.5804C63.901 93.5686 64.1241 93.4738 64.3176 93.2961C64.515 93.1185 64.6887 92.8282 64.8388 92.4255L65.0579 91.8214L61.7293 82.6054H63.6246L65.9286 89.6654H66.0234L68.3274 82.6054H70.2286L66.4794 92.9171C66.3057 93.3909 66.0846 93.7917 65.8161 94.1194C65.5476 94.4511 65.2277 94.6999 64.8566 94.8657C64.4854 95.0315 64.055 95.1145 63.5654 95.1145ZM13.3857 109.301V114.703H11.6147V102.573H13.362V107.086H13.4745C13.6877 106.596 14.0135 106.208 14.4518 105.919C14.8901 105.631 15.4626 105.487 16.1694 105.487C16.7933 105.487 17.3382 105.615 17.8041 105.872C18.274 106.129 18.6373 106.512 18.8939 107.021C19.1545 107.526 19.2849 108.158 19.2849 108.916V114.703H17.5139V109.129C17.5139 108.462 17.3422 107.945 16.9986 107.578C16.6551 107.207 16.1773 107.021 15.5653 107.021C15.1467 107.021 14.7716 107.11 14.4399 107.287C14.1122 107.465 13.8536 107.726 13.6641 108.069C13.4785 108.409 13.3857 108.82 13.3857 109.301ZM24.5041 114.904C23.9276 114.904 23.4064 114.798 22.9404 114.584C22.4745 114.367 22.1053 114.053 21.8329 113.643C21.5644 113.232 21.4301 112.729 21.4301 112.132C21.4301 111.619 21.5288 111.197 21.7263 110.865C21.9237 110.533 22.1902 110.271 22.5258 110.077C22.8615 109.884 23.2366 109.738 23.6512 109.639C24.0658 109.54 24.4883 109.465 24.9187 109.414C25.4636 109.351 25.9058 109.299 26.2454 109.26C26.585 109.216 26.8318 109.147 26.9858 109.052C27.1398 108.958 27.2168 108.804 27.2168 108.59V108.549C27.2168 108.032 27.0707 107.631 26.7785 107.347C26.4902 107.062 26.0598 106.92 25.4873 106.92C24.891 106.92 24.4212 107.053 24.0776 107.317C23.7381 107.578 23.5031 107.868 23.3728 108.188L21.7085 107.809C21.9059 107.256 22.1942 106.81 22.5732 106.47C22.9562 106.127 23.3965 105.878 23.894 105.724C24.3915 105.566 24.9147 105.487 25.4636 105.487C25.8269 105.487 26.2118 105.53 26.6185 105.617C27.0292 105.7 27.4122 105.854 27.7676 106.079C28.1269 106.304 28.4211 106.626 28.6501 107.045C28.8791 107.459 28.9936 107.998 28.9936 108.662V114.703H27.2641V113.459H27.1931C27.0786 113.688 26.9068 113.913 26.6778 114.134C26.4488 114.355 26.1546 114.539 25.7953 114.685C25.4359 114.831 25.0055 114.904 24.5041 114.904ZM24.8891 113.483C25.3787 113.483 25.7972 113.386 26.1447 113.193C26.4961 112.999 26.7627 112.746 26.9443 112.434C27.1299 112.119 27.2227 111.781 27.2227 111.422V110.249C27.1595 110.312 27.0371 110.371 26.8555 110.427C26.6778 110.478 26.4744 110.523 26.2454 110.563C26.0164 110.598 25.7933 110.632 25.5761 110.664C25.3589 110.691 25.1773 110.715 25.0312 110.735C24.6877 110.778 24.3738 110.851 24.0895 110.954C23.8091 111.056 23.5841 111.204 23.4143 111.398C23.2484 111.587 23.1655 111.84 23.1655 112.156C23.1655 112.594 23.3274 112.926 23.6512 113.151C23.975 113.372 24.3876 113.483 24.8891 113.483ZM31.703 114.703V102.573H33.474V107.08H33.5806C33.6832 106.891 33.8313 106.671 34.0248 106.423C34.2183 106.174 34.4868 105.957 34.8303 105.771C35.1738 105.582 35.6279 105.487 36.1926 105.487C36.927 105.487 37.5825 105.673 38.159 106.044C38.7354 106.415 39.1876 106.95 39.5153 107.649C39.847 108.348 40.0128 109.189 40.0128 110.172C40.0128 111.155 39.8489 111.998 39.5212 112.701C39.1935 113.4 38.7433 113.939 38.1708 114.318C37.5983 114.693 36.9448 114.881 36.2103 114.881C35.6575 114.881 35.2054 114.788 34.854 114.602C34.5065 114.417 34.2341 114.199 34.0366 113.951C33.8392 113.702 33.6872 113.481 33.5806 113.287H33.4325V114.703H31.703ZM33.4384 110.154C33.4384 110.794 33.5312 111.355 33.7168 111.836C33.9024 112.318 34.1709 112.695 34.5223 112.967C34.8737 113.236 35.3041 113.37 35.8135 113.37C36.3426 113.37 36.7848 113.23 37.1402 112.95C37.4956 112.665 37.7641 112.28 37.9457 111.795C38.1313 111.309 38.2241 110.762 38.2241 110.154C38.2241 109.554 38.1333 109.015 37.9517 108.537C37.774 108.059 37.5055 107.682 37.1461 107.406C36.7908 107.13 36.3466 106.991 35.8135 106.991C35.3002 106.991 34.8658 107.124 34.5105 107.388C34.159 107.653 33.8925 108.022 33.7109 108.496C33.5292 108.97 33.4384 109.522 33.4384 110.154ZM42.2099 114.703V105.605H43.9808V114.703H42.2099ZM43.1042 104.202C42.7963 104.202 42.5317 104.099 42.3106 103.894C42.0934 103.684 41.9848 103.436 41.9848 103.147C41.9848 102.855 42.0934 102.606 42.3106 102.401C42.5317 102.192 42.7963 102.087 43.1042 102.087C43.4122 102.087 43.6748 102.192 43.892 102.401C44.1131 102.606 44.2237 102.855 44.2237 103.147C44.2237 103.436 44.1131 103.684 43.892 103.894C43.6748 104.099 43.4122 104.202 43.1042 104.202ZM50.8185 105.605V107.027H45.8492V105.605H50.8185ZM47.1818 103.426H48.9528V112.032C48.9528 112.375 49.0041 112.634 49.1068 112.808C49.2094 112.977 49.3417 113.094 49.5036 113.157C49.6694 113.216 49.8491 113.246 50.0426 113.246C50.1847 113.246 50.3091 113.236 50.4157 113.216C50.5223 113.197 50.6053 113.181 50.6645 113.169L50.9843 114.632C50.8817 114.671 50.7356 114.711 50.546 114.75C50.3565 114.794 50.1196 114.817 49.8353 114.821C49.3694 114.829 48.935 114.746 48.5323 114.573C48.1295 114.399 47.8037 114.13 47.555 113.767C47.3062 113.404 47.1818 112.948 47.1818 112.399V103.426ZM59.6566 107.826L58.0515 108.111C57.9844 107.905 57.8777 107.71 57.7317 107.524C57.5895 107.339 57.396 107.187 57.1512 107.068C56.9064 106.95 56.6004 106.891 56.2332 106.891C55.7317 106.891 55.3131 107.003 54.9775 107.228C54.6419 107.449 54.4741 107.736 54.4741 108.087C54.4741 108.391 54.5866 108.636 54.8117 108.821C55.0367 109.007 55.4 109.159 55.9015 109.278L57.3467 109.609C58.1838 109.803 58.8076 110.101 59.2183 110.504C59.6289 110.906 59.8343 111.43 59.8343 112.073C59.8343 112.618 59.6763 113.104 59.3604 113.53C59.0485 113.953 58.6122 114.284 58.0515 114.525C57.4947 114.766 56.8491 114.887 56.1147 114.887C55.096 114.887 54.2648 114.669 53.6212 114.235C52.9776 113.797 52.5827 113.175 52.4366 112.369L54.1483 112.109C54.2549 112.555 54.4741 112.892 54.8058 113.121C55.1374 113.347 55.5698 113.459 56.1029 113.459C56.6833 113.459 57.1473 113.339 57.4947 113.098C57.8422 112.853 58.0159 112.555 58.0159 112.203C58.0159 111.919 57.9093 111.68 57.6961 111.487C57.4868 111.293 57.165 111.147 56.7307 111.048L55.1907 110.711C54.3418 110.517 53.714 110.209 53.3073 109.787C52.9045 109.364 52.7031 108.829 52.7031 108.182C52.7031 107.645 52.8532 107.175 53.1533 106.772C53.4534 106.369 53.868 106.056 54.3971 105.83C54.9262 105.601 55.5323 105.487 56.2154 105.487C57.1986 105.487 57.9725 105.7 58.5372 106.127C59.1018 106.549 59.4749 107.116 59.6566 107.826Z" fill="#2D3436"/>
</g>
<rect x="0.521212" y="1.15744" width="170.958" height="170.958" rx="20.3273" stroke="#E1E1E1" stroke-width="1.04242"/>
<defs>
<linearGradient id="paint0_linear_1_170" x1="160.623" y1="28.3782" x2="84.4575" y2="142.719" gradientUnits="userSpaceOnUse">
<stop stop-color="#F1F1F1"/>
<stop offset="1" stop-color="white"/>
</linearGradient>
<clipPath id="clip0_1_170">
<rect y="0.63623" width="172" height="172" rx="20.8485" fill="white"/>
</clipPath>
<clipPath id="clip1_1_170">
<rect width="84.6769" height="172" fill="white" transform="translate(87.3231 0.63623)"/>
</clipPath>
</defs>
</svg>
