<svg width="172" height="172" viewBox="0 0 172 172" fill="none" xmlns="http://www.w3.org/2000/svg">
<rect x="0.521212" y="0.521212" width="170.958" height="170.958" rx="20.3273" fill="url(#paint0_linear_1_168)"/>
<rect x="0.521212" y="0.521212" width="170.958" height="170.958" rx="20.3273" stroke="#E1E1E1" stroke-width="1.04242"/>
<g clip-path="url(#clip0_1_168)">
<path d="M115.99 63.5879C112.01 51.0791 117.032 18.2427 124.85 0.52127C124.85 -4.0654 149.521 -3.47469 161.856 -2.606C162.69 5.31642 142.398 38.5698 132.147 54.2061L136.317 70.8849L128.499 94.3395C127.456 87.0425 119.638 75.0546 115.99 63.5879Z" fill="#A08263"/>
<path d="M128.395 -2.36439C128.605 -2.80711 128.814 -3.23514 129.02 -3.64798L133.19 -2.60556C132.602 -2.09089 130.719 -2.74 128.395 -2.36439C124.425 6.00768 119.913 19.6322 118.453 35.0455C120.722 54.4674 126.488 77.4891 129.02 87.0429C118.869 70.5477 116.87 51.7465 118.453 35.0455C117.297 25.1525 117.048 16.1936 118.596 10.4242C121.242 0.563228 125.228 -1.85243 128.395 -2.36439Z" fill="#61472D"/>
<path d="M161.911 14.7675C170.291 13.2157 176.072 7.65474 177.915 5.06827C180.307 2.22316 185.752 -2.14798 188.39 3.12842C191.028 8.40482 186.709 13.7329 184.219 15.7375C174.908 24.2728 161.394 27.0533 155.8 27.3766V32.8082L161.911 41.5375L124.569 49.1029L126.509 38.9187C123.437 39.7593 116.441 43.555 113.027 52.0127C108.759 62.5849 102.163 71.7022 99.6416 73.0601C97.1198 74.418 91.3972 70.6353 88.2934 69.3744C85.1897 68.1135 76.0724 60.2571 75.0054 57.7353C74.3331 56.1461 74.9406 54.7736 75.5765 53.9781C72.6241 56.7446 69.6039 54.8452 68.41 53.4676C66.0822 54.2435 62.5904 51.7217 65.1122 50.5578C67.634 49.3939 74.6175 46.9691 77.2363 49.1029C79.8551 51.2368 83.0559 52.8857 86.4506 54.6315C89.1664 56.0282 94.501 57.2826 96.8288 57.7353C98.4777 53.7586 109.05 42.4104 113.027 34.845C117.003 27.2796 129.321 21.945 129.709 18.1623C130.02 15.1361 130.744 4.09835 131.067 -1.04226C139.732 -0.16933 161.31 -2.83722 158.128 1.04248C154.947 4.92219 145.422 20.2638 143.579 24.7578C146.198 22.0743 153.531 16.3194 161.911 14.7675Z" fill="#EAC7AC"/>
<path d="M135.529 77.4248C139.098 72.226 135.593 62.1323 133.395 57.7353C139.958 56.7007 153.628 54.9225 155.8 56.0864C157.973 57.2503 156.706 73.2541 155.8 81.1105L135.529 77.4248Z" fill="#EAC7AC"/>
<path d="M163.463 159.093C162.92 150.635 147.459 137.463 139.797 131.935C134.721 117.838 131.281 94.5149 158.128 113.991C184.976 133.467 182.506 160.644 177.915 171.799L163.463 175.484C163.689 173.544 164.006 167.55 163.463 159.093Z" fill="#EAC7AC"/>
<path d="M109.147 173.157L115.742 131.935C122.984 132.42 137.469 134.418 137.469 138.53C137.469 142.643 128.869 163.328 124.569 173.157H109.147Z" fill="#EAC7AC"/>
<path d="M122.629 20.0046C129.07 17.7544 130.55 11.1783 130.486 8.17148C134.365 16.9008 125.442 24.8542 123.599 25.2422C121.756 25.6302 110.02 38.4332 108.759 41.5369C107.925 43.59 103.497 49.4095 100.289 53.4468C99.5087 54.8023 98.8664 55.657 98.4781 55.6979C98.9987 55.0597 99.6171 54.2923 100.289 53.4468C103.212 48.369 108.07 36.263 108.759 33.5835C109.632 30.1888 114.579 22.8174 122.629 20.0046Z" fill="#F5D5BC"/>
<path d="M154.249 81.4009C155.102 76.5125 155.768 62.2287 155.995 55.6979L159.292 57.0558C159.325 58.931 159.37 63.2051 159.292 65.3001C159.215 67.3952 157.838 77.4889 157.159 82.2739L154.249 81.4009Z" fill="#F5D5BC"/>
<path d="M178.4 141.73C176.46 138.239 167.505 122.881 163.269 115.639C161.038 123.69 167.828 128.442 174.132 137.075C179.176 143.981 180.502 154.954 180.534 159.577C182.241 150.111 179.823 143.735 178.4 141.73Z" fill="#F5D5BC"/>
<path d="M110.796 166.269L115.161 125.921C115.452 125.921 116.364 126.968 117.683 131.158C119.002 135.348 113.641 156.312 110.796 166.269Z" fill="#F5D5BC"/>
<path d="M157.159 15.4459C165.772 15.2907 172.58 10.5316 174.908 8.17148C172.677 13.7971 162.687 16.7068 155.995 18.5497C149.302 20.3926 144.293 26.6309 143.614 24.497C143.071 22.79 144.873 21.2332 145.326 20.6835C145.681 19.0023 148.546 15.6011 157.159 15.4459Z" fill="#F5D5BC"/>
<path d="M63.2697 46.8715C66.2959 46.018 69.9622 47.4858 71.4171 48.3264C70.1886 48.7467 67.421 49.7037 66.1795 50.1693C64.6277 50.7512 62.8818 52.4971 62.7848 54.243C62.6878 55.9888 58.9051 56.9588 59.487 55.6979C60.069 54.437 57.6442 49.1024 58.2261 49.1024C58.8081 49.1024 59.487 47.9385 63.2697 46.8715Z" fill="#F5D5BC"/>
<path d="M75.524 54.2881C74.7427 54.8951 74.9134 56.9525 75.1024 57.9291C75.1024 59.772 70.0588 59.19 68.5069 58.7051C67.2653 58.3171 65.0798 58.3494 64.1423 58.4141L64.3362 59.19C64.5625 59.384 65.1316 59.9854 65.5971 60.8389C66.1791 61.9058 61.6205 61.0329 60.4565 60.257C59.5254 59.6362 59.8746 58.9637 60.1656 58.7051C59.6806 58.3171 58.6912 57.3278 58.6136 56.4743C58.536 55.6207 59.1633 55.86 59.4866 56.0863C60.2625 56.0216 61.9308 55.5625 62.3963 54.2434C62.8619 52.9243 63.8836 52.1419 64.3362 51.9156C64.4914 53.4675 67.1813 53.6615 68.5069 53.5645C71.3272 56.0799 74.316 55.1197 75.524 54.2881C75.5444 54.2722 75.5656 54.2573 75.5874 54.2434C75.5668 54.2583 75.5457 54.2732 75.524 54.2881Z" fill="#D6B49B"/>
<path d="M100.03 72.866C100.319 72.6259 100.642 72.3537 100.992 72.0543C104.321 68.5082 109.572 56.5298 112.399 50.0808L112.445 49.9757C115.548 42.8953 118.458 41.2464 123.987 39.4035C129.515 37.5607 126.703 40.0825 126.024 44.9321C125.48 48.8118 123.922 50.4284 123.211 50.7517L120.495 46.387C118.911 49.3291 115.083 56.2221 112.445 60.257C110.058 63.9076 104.315 69.2098 100.992 72.0543C100.649 72.4193 100.327 72.6949 100.03 72.866Z" fill="#D6B49B"/>
<path d="M130.485 79.1705C135.218 70.7128 131.617 63.0374 129.224 60.257C128.642 57.3472 128.817 52.9825 134.171 58.8021C139.525 64.6216 137.889 74.0946 136.402 78.1036L130.485 79.1705Z" fill="#D6B49B"/>
<path d="M178.691 21.1689C172.793 26.2901 157.061 29.2193 155.8 28.1524C147.847 28.9283 177.236 19.908 184.219 12.9246C189.806 7.33777 191.655 8.13958 191.882 9.23883C190.562 14.0497 182.538 19.1967 178.691 21.1689Z" fill="#D6B49B"/>
<path d="M128.254 164.136C128.61 163.385 128.997 162.56 129.407 161.678C131.259 155.97 134.151 141.787 135.626 133.971C136.77 132.85 138.716 131.41 139.727 132.015C139.81 131.081 140.971 130.798 144.743 132.904C152.212 137.075 163.948 152.012 163.948 156.086C159.389 150.46 148.293 138.161 140.378 133.971C140.308 137.436 133.626 152.604 129.407 161.678C128.945 163.101 128.549 163.997 128.254 164.136Z" fill="#D6B49B"/>
<path d="M138.051 13.7975C134.792 11.392 131.843 8.20422 130.776 6.91099C131.52 7.49295 134.113 9.3746 138.536 12.2456C142.958 15.1166 150.272 9.23881 153.375 5.94106C151.63 8.26889 142.124 16.8042 138.051 13.7975Z" fill="#D6B49B"/>
<path d="M137.857 38.531C139.331 30.694 129.354 22.5918 124.181 19.5204C128.546 15.3497 134.753 26.0189 144.065 33.0994C153.376 40.1798 154.249 39.8889 154.249 35.1362C154.249 30.3836 146.281 22.2064 145.699 20.8485C145.233 19.7622 146.875 19.876 147.262 19.5204C149.461 22.1069 153.706 29.2973 154.249 30.3836C154.792 31.4699 160.941 39.9535 163.948 44.0595C162.849 44.0919 159.7 45.2429 155.898 49.5881C151.145 55.0197 144.453 47.1633 139.894 47.1633C135.335 47.1633 126.218 56.0866 125.345 54.5348C124.647 53.2932 122.144 49.5558 120.98 47.8423C125.992 48.0039 136.383 46.368 137.857 38.531Z" fill="#47BC67"/>
<path d="M158.323 74.1272C152.348 66.7558 139.021 68.7926 133.105 70.7325C133.105 72.2844 132.07 75.3881 131.553 76.746C149.399 74.651 155.865 82.5333 156.868 86.7363C157.644 83.0893 158.161 76.8107 158.323 74.1272Z" fill="#47BC67"/>
<path d="M131.262 64.0395C130.718 62.798 127.026 56.9914 125.248 54.2433C126.024 54.9222 134.947 48.4237 137.275 47.2598C139.603 46.0959 141.64 45.5139 145.714 49.1027C149.787 52.6914 154.734 50.0726 156.092 47.9388C157.178 46.2317 161.588 43.9944 163.657 43.0891C164.013 43.5094 164.821 44.932 165.209 47.2598C165.694 50.1696 161.232 54.7282 160.359 55.6012C159.666 56.2948 159.616 58.896 159.679 60.1349C159.68 60.1435 159.68 60.1518 159.68 60.1598C159.68 60.1516 159.68 60.1433 159.679 60.1349C159.642 59.7608 158.771 58.818 155.51 57.832C152.173 56.8233 137.954 61.5501 131.262 64.0395Z" fill="#34A853"/>
<path d="M115.937 95.3682C123.231 87.376 129.58 79.2997 131.844 76.2606C150.932 75.1743 156.48 82.7915 156.868 86.7358C157.488 90.4603 154.281 96.0471 152.6 98.3749L163.657 117.095C162.416 128.889 150.143 135.588 144.162 137.463L140.088 133.874L137.275 141.537C131.611 136.027 119.332 135.62 113.9 136.105C115.84 127.473 113.706 120.78 112.736 117.095C111.766 113.409 106.82 105.358 115.937 95.3682Z" fill="#34A853"/>
<path d="M159.486 61.5178C156.382 58.2588 139.699 62.6171 131.746 65.2035L130.679 62.6817C136.628 60.9035 149.554 57.2307 153.666 56.7651C157.779 56.2996 159.26 58.2524 159.486 59.2869V61.5178Z" fill="#2C9A4A"/>
<path d="M123.987 114.767C114.21 106.309 117.262 95.3359 120.01 90.9066C116.033 104.777 123.987 111.76 129.806 117.58C133.346 121.119 136.624 126.678 138.66 130.674C146.669 127.343 162.9 119.907 163.754 116.804C163.721 121.718 159.777 132.769 144.258 137.657L140.184 133.874L137.566 141.634C133.065 137.366 120.107 135.976 114.19 135.814V132.128L140.184 133.874C138.859 131.029 133.764 123.225 123.987 114.767Z" fill="#2C9A4A"/>
</g>
<path d="M19.966 71.7687C19.8515 71.4094 19.6975 71.0876 19.504 70.8033C19.3145 70.5151 19.0874 70.2702 18.8229 70.0689C18.5583 69.8635 18.2562 69.7076 17.9167 69.601C17.581 69.4943 17.2118 69.441 16.8091 69.441C16.126 69.441 15.51 69.6168 14.9612 69.9682C14.4123 70.3196 13.978 70.8349 13.6581 71.514C13.3422 72.1893 13.1843 73.0165 13.1843 73.9957C13.1843 74.9789 13.3442 75.8101 13.6641 76.4893C13.9839 77.1684 14.4222 77.6837 14.9789 78.0351C15.5357 78.3865 16.1694 78.5623 16.8802 78.5623C17.5396 78.5623 18.1141 78.428 18.6037 78.1595C19.0973 77.891 19.4783 77.5119 19.7468 77.0223C20.0193 76.5287 20.1555 75.9483 20.1555 75.281L20.6293 75.3698H17.1585V73.8595H21.9264V75.2395C21.9264 76.2583 21.7093 77.1427 21.2749 77.893C20.8445 78.6393 20.2483 79.2157 19.4862 79.6224C18.7281 80.0292 17.8594 80.2325 16.8802 80.2325C15.7825 80.2325 14.819 79.9798 13.9898 79.4744C13.1646 78.969 12.5209 78.2523 12.059 77.3244C11.597 76.3925 11.366 75.2869 11.366 74.0076C11.366 73.0402 11.5002 72.1715 11.7687 71.4015C12.0372 70.6315 12.4143 69.978 12.9 69.441C13.3896 68.9001 13.9641 68.4875 14.6236 68.2032C15.2869 67.9149 16.0115 67.7708 16.7972 67.7708C17.4527 67.7708 18.0628 67.8675 18.6274 68.061C19.196 68.2545 19.7014 68.5289 20.1437 68.8843C20.5899 69.2397 20.959 69.6622 21.2512 70.1518C21.5434 70.6375 21.7409 71.1764 21.8435 71.7687H19.966ZM26.9635 80.268C26.3871 80.268 25.8658 80.1614 25.3999 79.9482C24.934 79.731 24.5648 79.4171 24.2923 79.0065C24.0238 78.5958 23.8896 78.0924 23.8896 77.4961C23.8896 76.9828 23.9883 76.5603 24.1857 76.2286C24.3832 75.897 24.6497 75.6344 24.9853 75.4409C25.3209 75.2474 25.6961 75.1013 26.1107 75.0026C26.5253 74.9039 26.9478 74.8289 27.3781 74.7775C27.9231 74.7144 28.3653 74.663 28.7049 74.6235C29.0444 74.5801 29.2912 74.511 29.4452 74.4162C29.5992 74.3215 29.6762 74.1675 29.6762 73.9543V73.9128C29.6762 73.3955 29.5301 72.9948 29.2379 72.7105C28.9497 72.4262 28.5193 72.284 27.9467 72.284C27.3505 72.284 26.8806 72.4163 26.5371 72.6808C26.1975 72.9415 25.9626 73.2317 25.8323 73.5515L24.168 73.1724C24.3654 72.6196 24.6536 72.1735 25.0327 71.8339C25.4157 71.4904 25.856 71.2416 26.3535 71.0876C26.851 70.9297 27.3742 70.8507 27.9231 70.8507C28.2863 70.8507 28.6713 70.8941 29.078 70.981C29.4887 71.0639 29.8717 71.2179 30.227 71.443C30.5864 71.668 30.8805 71.9898 31.1096 72.4084C31.3386 72.823 31.4531 73.362 31.4531 74.0253V80.0667H29.7236V78.8229H29.6525C29.538 79.0519 29.3663 79.2769 29.1372 79.4981C28.9082 79.7192 28.6141 79.9028 28.2547 80.0489C27.8954 80.195 27.465 80.268 26.9635 80.268ZM27.3485 78.8466C27.8382 78.8466 28.2567 78.7498 28.6042 78.5563C28.9556 78.3629 29.2221 78.1101 29.4038 77.7982C29.5894 77.4823 29.6821 77.1447 29.6821 76.7854V75.6127C29.619 75.6758 29.4966 75.7351 29.3149 75.7904C29.1372 75.8417 28.9339 75.8871 28.7049 75.9266C28.4759 75.9621 28.2528 75.9957 28.0356 76.0273C27.8184 76.0549 27.6368 76.0786 27.4907 76.0983C27.1472 76.1418 26.8332 76.2148 26.5489 76.3175C26.2686 76.4202 26.0435 76.5682 25.8737 76.7617C25.7079 76.9512 25.625 77.2039 25.625 77.5198C25.625 77.9581 25.7869 78.2898 26.1107 78.5149C26.4344 78.736 26.8471 78.8466 27.3485 78.8466ZM34.0203 80.0667V70.9691H35.7913V80.0667H34.0203ZM34.9147 69.5654C34.6067 69.5654 34.3422 69.4628 34.121 69.2574C33.9039 69.0482 33.7953 68.7994 33.7953 68.5112C33.7953 68.219 33.9039 67.9702 34.121 67.7649C34.3422 67.5556 34.6067 67.451 34.9147 67.451C35.2227 67.451 35.4853 67.5556 35.7024 67.7649C35.9236 67.9702 36.0341 68.219 36.0341 68.5112C36.0341 68.7994 35.9236 69.0482 35.7024 69.2574C35.4853 69.4628 35.2227 69.5654 34.9147 69.5654ZM40.1532 74.665V80.0667H38.3822V70.9691H40.0821V72.4499H40.1946C40.4039 71.9681 40.7316 71.5812 41.1778 71.289C41.628 70.9968 42.1946 70.8507 42.8777 70.8507C43.4976 70.8507 44.0406 70.981 44.5065 71.2416C44.9724 71.4982 45.3337 71.8813 45.5904 72.3906C45.847 72.9 45.9754 73.5298 45.9754 74.28V80.0667H44.2044V74.4932C44.2044 73.8338 44.0327 73.3185 43.6891 72.9474C43.3456 72.5723 42.8737 72.3847 42.2736 72.3847C41.8629 72.3847 41.4977 72.4735 41.1778 72.6512C40.8619 72.8289 40.6112 73.0895 40.4256 73.4331C40.244 73.7726 40.1532 74.1833 40.1532 74.665ZM11.7569 89.9366H13.978L17.8397 99.3658H17.9818L21.8435 89.9366H24.0646V102.067H22.3233V93.289H22.2107L18.6333 102.049H17.1882L13.6107 93.2831H13.4982V102.067H11.7569V89.9366ZM32.5547 98.2938V92.9691H34.3316V102.067H32.5903V100.491H32.4955C32.2862 100.977 31.9506 101.382 31.4886 101.705C31.0306 102.025 30.46 102.185 29.7769 102.185C29.1925 102.185 28.6753 102.057 28.2251 101.8C27.7789 101.54 27.4275 101.155 27.1709 100.645C26.9181 100.136 26.7918 99.506 26.7918 98.7558V92.9691H28.5627V98.5426C28.5627 99.1625 28.7345 99.6561 29.078 100.023C29.4215 100.39 29.8677 100.574 30.4166 100.574C30.7483 100.574 31.078 100.491 31.4057 100.325C31.7374 100.159 32.0118 99.9088 32.229 99.5731C32.4501 99.2375 32.5587 98.8111 32.5547 98.2938ZM43.7368 95.1902L42.1317 95.4745C42.0646 95.2692 41.958 95.0737 41.8119 94.8881C41.6697 94.7026 41.4762 94.5505 41.2314 94.4321C40.9866 94.3136 40.6806 94.2544 40.3134 94.2544C39.8119 94.2544 39.3934 94.3669 39.0577 94.592C38.7221 94.8131 38.5543 95.0994 38.5543 95.4508C38.5543 95.7549 38.6668 95.9997 38.8919 96.1853C39.117 96.3708 39.4802 96.5229 39.9817 96.6413L41.4269 96.973C42.264 97.1665 42.8879 97.4646 43.2985 97.8674C43.7092 98.2701 43.9145 98.7933 43.9145 99.4369C43.9145 99.9818 43.7566 100.467 43.4407 100.894C43.1287 101.316 42.6924 101.648 42.1317 101.889C41.575 102.13 40.9294 102.25 40.1949 102.25C39.1762 102.25 38.345 102.033 37.7014 101.599C37.0578 101.16 36.6629 100.539 36.5168 99.7331L38.2285 99.4724C38.3352 99.9186 38.5543 100.256 38.886 100.485C39.2177 100.71 39.65 100.823 40.1831 100.823C40.7635 100.823 41.2275 100.702 41.575 100.462C41.9224 100.217 42.0962 99.9186 42.0962 99.5672C42.0962 99.2829 41.9896 99.044 41.7763 98.8505C41.5671 98.6571 41.2453 98.511 40.8109 98.4123L39.271 98.0747C38.422 97.8812 37.7942 97.5732 37.3875 97.1507C36.9847 96.7282 36.7834 96.1932 36.7834 95.5456C36.7834 95.0086 36.9334 94.5387 37.2335 94.1359C37.5336 93.7332 37.9482 93.4193 38.4773 93.1942C39.0064 92.9652 39.6125 92.8507 40.2956 92.8507C41.2788 92.8507 42.0527 93.0639 42.6174 93.4904C43.182 93.9129 43.5552 94.4795 43.7368 95.1902ZM49.9022 102.25C49.0217 102.25 48.2636 102.051 47.6278 101.652C46.9961 101.249 46.5104 100.695 46.1708 99.9877C45.8312 99.2809 45.6614 98.4715 45.6614 97.5594C45.6614 96.6354 45.8352 95.82 46.1827 95.1132C46.5301 94.4025 47.0198 93.8477 47.6515 93.4489C48.2833 93.0501 49.0276 92.8507 49.8844 92.8507C50.5754 92.8507 51.1914 92.979 51.7324 93.2357C52.2733 93.4884 52.7097 93.8437 53.0413 94.3018C53.377 94.7598 53.5764 95.2949 53.6395 95.9069H51.916C51.8212 95.4804 51.6041 95.1132 51.2645 94.8052C50.9288 94.4972 50.4787 94.3432 49.9141 94.3432C49.4205 94.3432 48.9881 94.4735 48.617 94.7342C48.2497 94.9908 47.9635 95.358 47.7581 95.8358C47.5528 96.3096 47.4502 96.8703 47.4502 97.5179C47.4502 98.1813 47.5508 98.7538 47.7522 99.2355C47.9536 99.7173 48.2379 100.09 48.6051 100.355C48.9763 100.62 49.4126 100.752 49.9141 100.752C50.2497 100.752 50.5537 100.691 50.8262 100.568C51.1026 100.442 51.3336 100.262 51.5192 100.029C51.7087 99.7962 51.841 99.5159 51.916 99.1881H53.6395C53.5764 99.7765 53.3849 100.302 53.065 100.764C52.7452 101.226 52.3168 101.589 51.7798 101.853C51.2467 102.118 50.6209 102.25 49.9022 102.25ZM57.5128 89.9366V102.067H55.7419V89.9366H57.5128ZM64.0247 102.25C63.1284 102.25 62.3564 102.059 61.7089 101.676C61.0652 101.289 60.5677 100.746 60.2163 100.047C59.8688 99.3441 59.6951 98.5208 59.6951 97.5771C59.6951 96.6453 59.8688 95.824 60.2163 95.1132C60.5677 94.4025 61.0573 93.8477 61.6852 93.4489C62.3169 93.0501 63.0553 92.8507 63.9003 92.8507C64.4136 92.8507 64.9112 92.9356 65.3929 93.1054C65.8746 93.2752 66.307 93.5417 66.69 93.905C67.073 94.2682 67.3751 94.7401 67.5962 95.3205C67.8173 95.897 67.9279 96.5979 67.9279 97.4231V98.051H60.696V96.7242H66.1925C66.1925 96.2583 66.0977 95.8457 65.9082 95.4864C65.7186 95.1231 65.4521 94.8368 65.1086 94.6275C64.769 94.4183 64.3702 94.3136 63.9122 94.3136C63.4146 94.3136 62.9803 94.436 62.6091 94.6808C62.2419 94.9217 61.9576 95.2376 61.7562 95.6285C61.5588 96.0155 61.4601 96.436 61.4601 96.8901V97.9266C61.4601 98.5347 61.5667 99.0519 61.7799 99.4784C61.9971 99.9048 62.2992 100.231 62.6861 100.456C63.0731 100.677 63.5252 100.787 64.0425 100.787C64.3781 100.787 64.6841 100.74 64.9605 100.645C65.2369 100.546 65.4758 100.4 65.6772 100.207C65.8786 100.013 66.0325 99.7745 66.1392 99.4902L67.8153 99.7923C67.6811 100.286 67.4402 100.718 67.0927 101.089C66.7492 101.457 66.3168 101.743 65.7956 101.948C65.2784 102.15 64.6881 102.25 64.0247 102.25Z" fill="#2D3436"/>
<defs>
<linearGradient id="paint0_linear_1_168" x1="160.623" y1="27.7419" x2="84.4575" y2="142.083" gradientUnits="userSpaceOnUse">
<stop stop-color="#F1F1F1"/>
<stop offset="1" stop-color="white"/>
</linearGradient>
<clipPath id="clip0_1_168">
<rect width="84.6769" height="172" fill="white" transform="translate(87.3231)"/>
</clipPath>
</defs>
</svg>
